<svg width="50" height="32" viewBox="0 0 50 32" fill="none" xmlns="http://www.w3.org/2000/svg">
<rect width="50" height="32" rx="3" fill="#E4E9F8"/>
<path fill-rule="evenodd" clip-rule="evenodd" d="M38.1526 23.0596H39.0664C38.9025 23.1512 38.6832 23.3249 38.4079 23.5804L37.4942 24.5139L37.9954 25.2313C38.5195 25.9781 38.978 26.548 39.3711 26.941H38.0641C37.9004 26.561 37.6874 26.1746 37.4254 25.7815L36.8359 24.8972L37.347 24.2486C37.8053 23.6526 38.074 23.2562 38.1526 23.0596ZM36.7671 23.492V26.4989L36.8064 26.7249C36.8325 26.7642 36.8917 26.797 36.9831 26.8231V26.941H35.7154V26.8231L35.8923 26.7249C35.9185 26.6856 35.9316 26.6103 35.9316 26.4989V23.492L35.8923 23.2758C35.8662 23.23 35.807 23.2005 35.7154 23.1874V23.0596H36.9831V23.1874C36.8915 23.2003 36.8323 23.23 36.8064 23.2758L36.7671 23.492ZM34.8804 23.492V26.4989L34.9197 26.7249L35.0966 26.8231V26.941H33.8192V26.8231C33.9107 26.797 33.9764 26.7642 34.0157 26.7249L34.045 26.4989V24.9365H32.5514V26.4989L32.5907 26.7249C32.617 26.7642 32.6758 26.797 32.7673 26.8231V26.941H31.4801V26.8231C31.585 26.797 31.6503 26.7642 31.6766 26.7249L31.7159 26.4989V23.492L31.6766 23.2758C31.6503 23.23 31.585 23.2005 31.4801 23.1874V23.0596H32.7673V23.1874C32.6756 23.2003 32.6168 23.23 32.5907 23.2758L32.5514 23.492V24.681H34.045V23.492L34.0157 23.2758C33.9764 23.23 33.9107 23.2005 33.8192 23.1874V23.0596H35.0966V23.1874C35.0048 23.2003 34.9458 23.23 34.9197 23.2758L34.8804 23.492ZM28.6996 23.1874V23.0596H29.8196C29.8326 23.2365 29.8788 23.4265 29.9572 23.6296L30.7826 25.9486C30.9202 26.3548 31.0544 26.6856 31.1855 26.941H30.2029L29.7805 25.5457H28.5324L28.2671 26.4694L28.1884 26.941H27.4809L28.7385 24.0324C28.8631 23.7247 28.9252 23.515 28.9252 23.4036C28.9256 23.2792 28.8502 23.207 28.6996 23.1874ZM29.1615 23.7082L28.6308 25.2706H29.6921L29.1615 23.7082ZM27.1765 23.9047H26.9601L26.911 23.7376C26.8585 23.5476 26.7799 23.4232 26.6752 23.3642L26.1347 23.2955H25.6141C25.496 23.2955 25.4176 23.3151 25.3783 23.3544C25.3457 23.3872 25.3292 23.446 25.3292 23.5313V24.455H25.5453C26.1742 24.455 26.6099 24.5173 26.8523 24.6417C27.1995 24.8121 27.3731 25.1462 27.3731 25.644C27.3731 26.1288 27.2355 26.4759 26.9601 26.6856C26.7178 26.856 26.3413 26.941 25.8301 26.941H24.2777V26.8231L24.4642 26.7249L24.4937 26.4989V23.492L24.4642 23.2758C24.4381 23.23 24.376 23.2005 24.2777 23.1874V23.0596H27.1765V23.9047ZM25.3292 24.7006V26.3613C25.3292 26.4924 25.3522 26.5775 25.3979 26.6168C25.4506 26.6693 25.5422 26.6954 25.6731 26.6954H25.791C26.0402 26.6954 26.2234 26.6101 26.3415 26.4399C26.4462 26.2827 26.4987 26.0305 26.4987 25.6833C26.4987 25.3427 26.4429 25.1004 26.3315 24.9561C26.2135 24.7857 25.994 24.7006 25.6731 24.7006H25.3292ZM23.9338 24.17C23.9338 24.622 23.7963 24.9463 23.5209 25.1428C23.2851 25.3132 22.9184 25.3983 22.4204 25.3983H22.0273V26.4989L22.0666 26.7249C22.0863 26.7642 22.1484 26.797 22.2531 26.8231V26.941H20.9757V26.8231L21.1526 26.7249L21.1919 26.4989V23.492L21.1526 23.2758C21.1264 23.23 21.0673 23.2005 20.9757 23.1874V23.0596H22.5872C23.0261 23.0596 23.347 23.1251 23.5502 23.2562C23.8061 23.4265 23.9338 23.7312 23.9338 24.17ZM22.0865 23.3348C22.0472 23.3609 22.0275 23.4199 22.0275 23.5116V25.1526H22.4206C22.6629 25.1526 22.8333 25.0609 22.9315 24.8775C23.0168 24.7138 23.0593 24.4648 23.0593 24.1307C23.0593 23.5739 22.8266 23.2955 22.3616 23.2955H22.2633L22.0865 23.3348ZM20.3865 23.9047H20.1801L20.131 23.7376C20.0656 23.5476 19.9836 23.4232 19.8854 23.3642L19.3547 23.2955H18.9224L18.7651 23.3348L18.7258 23.4822V24.681H19.2368C19.5906 24.681 19.8231 24.6417 19.9345 24.5631V25.0544C19.8233 24.9758 19.5906 24.9365 19.2368 24.9365H18.7258V26.3908C18.7258 26.5087 18.7651 26.5906 18.8438 26.6364L19.3351 26.6954H19.4432L19.9738 26.6168C20.0656 26.5578 20.1377 26.4138 20.19 26.1844L20.2293 26.037H20.4749V26.941H17.6744V26.8231C17.7727 26.797 17.835 26.7642 17.8611 26.7249L17.9004 26.4989V23.492L17.8611 23.2758C17.835 23.23 17.7727 23.2005 17.6744 23.1874V23.0596H20.3865V23.9047ZM17.0357 23.9047H16.8293L16.7802 23.7376C16.7213 23.5476 16.6393 23.4232 16.5346 23.3642L16.0138 23.2955H15.4733C15.3619 23.2955 15.2833 23.3151 15.2375 23.3544C15.2178 23.3872 15.208 23.446 15.208 23.5313V24.455H15.4242C16.0466 24.455 16.4821 24.5173 16.7311 24.6417C17.0717 24.8121 17.2421 25.1462 17.2421 25.644C17.2421 26.1288 17.1045 26.4759 16.8293 26.6856C16.5935 26.856 16.2168 26.941 15.6993 26.941H14.1369V26.8231C14.2419 26.797 14.3073 26.7642 14.3335 26.7249L14.3728 26.4989V23.492L14.3335 23.2758C14.3073 23.23 14.2419 23.2005 14.1369 23.1874V23.0596H17.0357V23.9047ZM13.1248 23.3741C13.0069 23.289 12.8235 23.2463 12.5745 23.2463C12.1815 23.2463 11.903 23.3904 11.7393 23.6787C11.6017 23.9277 11.5329 24.3337 11.5329 24.8972C11.5329 25.4606 11.6082 25.8765 11.7589 26.1451C11.9423 26.4792 12.2567 26.6463 12.7023 26.6463C13.0299 26.6463 13.3542 26.5676 13.6751 26.4104L13.793 26.6561C13.4196 26.8852 12.9808 27 12.4763 27C11.2446 27 10.6289 26.3481 10.6289 25.0446C10.6289 23.6755 11.2676 22.9908 12.545 22.9908C13.0364 22.9908 13.4131 23.0498 13.6751 23.1677V23.9735H13.4294L13.3606 23.7376C13.3082 23.5739 13.2296 23.4527 13.1248 23.3741ZM15.208 24.7006V26.3613C15.208 26.4924 15.2277 26.5775 15.267 26.6168C15.3194 26.6693 15.4144 26.6954 15.5519 26.6954H15.66C16.1317 26.6954 16.3675 26.358 16.3675 25.6833C16.3675 25.3427 16.3119 25.1004 16.2005 24.9561C16.0761 24.7857 15.8532 24.7006 15.5323 24.7006H15.208Z" fill="#4376FB"/>
<path fill-rule="evenodd" clip-rule="evenodd" d="M29.5451 5.93658L30.1878 6.52423L22.0708 11.1888L18.1409 8.91159L18.5081 8.17702L22.0708 10.2154L29.5451 5.93658ZM27.9106 5L28.7738 5.44074L22.0708 9.29724L18.9489 7.5159L19.4814 6.87315L22.0708 8.36066L27.9106 5ZM30.7571 7.13025L31.2346 7.773L22.0708 13.0435L17.645 10.5093L17.847 9.70125L22.0708 12.1253L30.7571 7.13025Z" fill="#4376FB"/>
<path fill-rule="evenodd" clip-rule="evenodd" d="M32.0795 9.49922C32.3487 10.2584 32.4835 11.0539 32.4835 11.8866C32.4835 12.7192 32.3487 13.5272 32.0795 14.3107L31.8958 14.8069C31.5164 15.7005 30.9838 16.4964 30.2981 17.1942C29.6003 17.8796 28.8047 18.4063 27.9108 18.7735C26.9683 19.1776 25.995 19.3796 24.9909 19.3796C23.9746 19.3796 23.0013 19.1772 22.0709 18.7735C21.2016 18.4063 20.4119 17.8796 19.7019 17.1942C19.0041 16.4964 18.4715 15.7005 18.1043 14.8069C17.7124 13.8637 17.5166 12.8904 17.5166 11.8866V11.3907L22.0709 13.9801L31.6754 8.47083L32.0795 9.49922Z" fill="#4376FB"/>
</svg>
