<svg width="10" height="13" viewBox="0 0 10 13" fill="none" xmlns="http://www.w3.org/2000/svg">
<path fill-rule="evenodd" clip-rule="evenodd" d="M1.625 3.25V4.875C0.756965 4.875 0 5.5058 0 6.36458V11.5104C0 12.3692 0.756965 13 1.625 13H8.125C8.99304 13 9.75 12.3692 9.75 11.5104V6.36458C9.75 5.5058 8.99304 4.875 8.125 4.875V3.25C8.125 1.45507 6.66993 0 4.875 0C3.08007 0 1.625 1.45507 1.625 3.25ZM6.5 3.25V4.875H3.25V3.25C3.25 2.35254 3.97754 1.625 4.875 1.625C5.77246 1.625 6.5 2.35254 6.5 3.25ZM1.625 11.375V6.5H8.125V11.375H1.625ZM5.6875 8.9375C5.6875 9.38623 5.32373 9.75 4.875 9.75C4.42627 9.75 4.0625 9.38623 4.0625 8.9375C4.0625 8.48877 4.42627 8.125 4.875 8.125C5.32373 8.125 5.6875 8.48877 5.6875 8.9375Z" fill="#298355"/>
</svg>
