<svg width="50" height="32" viewBox="0 0 50 32" fill="none" xmlns="http://www.w3.org/2000/svg">
<rect width="50" height="32" rx="3" fill="#E4E9F8"/>
<path d="M6.927 16.219L5.8128 18.7216H5L6.22383 16.0457C5.93766 15.8996 5.70617 15.685 5.5299 15.4018C5.35308 15.1186 5.26495 14.7337 5.26495 14.2465C5.26495 13.9057 5.315 13.6059 5.41565 13.3469C5.51603 13.0885 5.65312 12.8736 5.8264 12.7031C5.99968 12.5325 6.20234 12.4049 6.43437 12.3195C6.66821 12.2339 6.91544 12.1906 7.16448 12.1917H8.21448V18.7216H7.51158V16.219H6.92673H6.927ZM7.51158 12.7765H7.137C6.99691 12.7765 6.85981 12.8024 6.72625 12.8543C6.59269 12.9063 6.47327 12.9887 6.3699 13.1019C6.26653 13.2147 6.18275 13.3644 6.11883 13.5507C6.05463 13.737 6.02307 13.9674 6.02307 14.2424C6.02307 14.5049 6.05164 14.725 6.10958 14.9021C6.16752 15.0792 6.24668 15.2231 6.34705 15.3327C6.4477 15.4426 6.5663 15.5204 6.7034 15.5664C6.84328 15.6125 6.98971 15.6357 7.137 15.6349H7.51158V12.7762V12.7765ZM11.6028 14.1187V18.7213H10.8993V16.6575H9.84008V18.7216H9.12793V14.1189H9.84008V16.0732H10.8993V14.1187H11.6028ZM15.265 19.6255H14.6258V18.7216H12.6531V19.6255H12.0138V18.137H12.2967C12.4004 17.8935 12.4825 17.6242 12.5434 17.3288C12.6041 17.0337 12.6514 16.7293 12.6849 16.4154C12.7183 16.102 12.7396 15.7824 12.7491 15.4567C12.7581 15.1309 12.7627 14.8159 12.7627 14.5112V14.1187H14.8997V18.137H15.265V19.6255ZM14.1965 14.703H13.4022V14.7851C13.4022 15.028 13.3973 15.2938 13.3881 15.5822C13.3786 15.8757 13.3589 16.1689 13.3288 16.4611C13.2985 16.7557 13.2559 17.0489 13.2009 17.34C13.1506 17.6124 13.0741 17.8793 12.9724 18.137H14.1965V14.703ZM18.3609 18.4109C18.2098 18.5293 18.0401 18.6219 17.8587 18.6848C17.67 18.7517 17.4597 18.7855 17.2285 18.7855C16.7535 18.7855 16.3792 18.6013 16.105 18.233C15.8311 17.8647 15.6943 17.3242 15.6943 16.6118C15.6943 16.2407 15.7198 15.8996 15.7718 15.589C15.8237 15.2783 15.9056 15.009 16.0185 14.7808C16.1309 14.5523 16.2756 14.3744 16.4524 14.2465C16.6287 14.1187 16.8387 14.0547 17.0821 14.0547C17.2709 14.0547 17.4445 14.0928 17.603 14.169C17.7611 14.2452 17.8949 14.3684 18.0048 14.5389C18.1142 14.7092 18.1993 14.9298 18.2605 15.2008C18.3212 15.4717 18.3516 15.8019 18.3516 16.1918V16.5843H16.4339C16.4339 17.1082 16.5054 17.5037 16.6488 17.7717C16.7916 18.0396 17.0062 18.1734 17.2924 18.1734C17.4931 18.1734 17.6713 18.1386 17.8266 18.0684C17.9817 17.9985 18.1052 17.93 18.1966 17.8631L18.3609 18.4109ZM17.0824 14.6393C16.8631 14.6393 16.7081 14.7625 16.6167 15.0093C16.525 15.2557 16.4671 15.586 16.4429 16H17.6213C17.6213 15.8052 17.612 15.624 17.5938 15.4567C17.5795 15.3096 17.5505 15.1642 17.507 15.0229C17.4673 14.901 17.4126 14.8066 17.3427 14.7397C17.3081 14.7066 17.2672 14.6806 17.2225 14.6633C17.1778 14.646 17.1301 14.6378 17.0821 14.6391L17.0824 14.6393ZM19.7945 16.4292V18.7216H19.0826V14.1189H19.795V16.2464L20.8999 14.1187H21.6213L20.4799 16.2832L21.7859 18.7216H21.0098L19.795 16.4292H19.7945ZM23.457 18.7852C22.9635 18.7852 22.577 18.5891 22.2971 18.1963C22.0169 17.8035 21.8768 17.2116 21.8768 16.42C21.8768 16.0609 21.9121 15.7353 21.9821 15.4429C22.0517 15.1507 22.1553 14.9026 22.2922 14.6986C22.4219 14.5014 22.5975 14.3384 22.8038 14.2237C23.0078 14.1111 23.2437 14.0547 23.5116 14.0547C23.7184 14.0547 23.8862 14.0776 24.0138 14.1233C24.1419 14.169 24.2572 14.2253 24.3612 14.292L24.2605 14.9679C24.157 14.8763 24.0417 14.799 23.9178 14.7378C23.789 14.6726 23.6467 14.6389 23.5024 14.6393C23.2467 14.6393 23.0367 14.7832 22.8724 15.0707C22.7078 15.3585 22.6257 15.796 22.6257 16.3833C22.6257 16.9648 22.6945 17.4131 22.831 17.7281C22.9681 18.0437 23.1828 18.2009 23.4752 18.2009C23.6514 18.2009 23.8041 18.171 23.9316 18.1111C24.0595 18.0518 24.1661 17.9841 24.2513 17.9088L24.4156 18.4384C24.2924 18.5427 24.1538 18.6274 24.0048 18.6895C23.8525 18.7534 23.6697 18.7852 23.457 18.7852Z" fill="#4376FB"/>
<path d="M29.2563 18.7215H26.4615L26.3979 19.8083H26.0415V18.3562H26.2333C26.3916 18.2221 26.5132 17.9844 26.5986 17.6427C26.684 17.3013 26.7507 16.8957 26.7996 16.4262C26.8483 15.9385 26.8818 15.3395 26.9 14.629C26.9182 13.9187 26.9335 13.1062 26.9454 12.1917H29.2285V18.3562H29.6763V19.8083H29.3199L29.2563 18.7215ZM28.7721 12.557H27.3565C27.3467 13.2916 27.3285 14.0261 27.3018 14.7604C27.2773 15.3925 27.2468 15.9466 27.2107 16.423C27.1677 16.918 27.1084 17.3255 27.0325 17.6462C26.9563 17.9669 26.8573 18.2036 26.7357 18.3562H28.7721V12.557ZM30.553 16.4931C30.565 17.1291 30.6534 17.6139 30.8177 17.9474C30.9822 18.2809 31.2317 18.4473 31.5665 18.4473C31.7189 18.4473 31.8527 18.4229 31.9683 18.3731C32.0839 18.3236 32.1816 18.2645 32.2607 18.1963C32.3521 18.1283 32.431 18.0445 32.4982 17.9452L32.635 18.2923C32.5619 18.3957 32.4737 18.4841 32.3704 18.557C32.279 18.6242 32.1663 18.6835 32.0325 18.7351C31.8981 18.7868 31.7401 18.8127 31.5576 18.8127C31.0704 18.8127 30.7113 18.6027 30.4798 18.1827C30.2486 17.7624 30.133 17.1751 30.133 16.42C30.133 16.0427 30.1664 15.7062 30.2334 15.4108C30.3003 15.1156 30.393 14.8645 30.5119 14.6573C30.6305 14.4505 30.772 14.2936 30.9363 14.1869C31.0964 14.0818 31.2839 14.0263 31.4754 14.0273C31.6762 14.0273 31.8557 14.0789 32.014 14.1823C32.1723 14.2862 32.3032 14.4413 32.4068 14.6483C32.5102 14.8553 32.5834 15.1126 32.6261 15.42C32.6685 15.7274 32.6718 16.0854 32.635 16.4931H30.553ZM31.4754 14.3926C31.2317 14.3926 31.0233 14.5425 30.8498 14.8425C30.6762 15.1423 30.5802 15.5797 30.562 16.1553H32.2333C32.27 15.5432 32.2107 15.0968 32.0554 14.815C31.9 14.5335 31.7066 14.3926 31.4754 14.3926ZM35.448 16.5206H33.8768V18.7213H33.4478V14.1189H33.8768V16.1556H35.448V14.1187H35.877V18.7213H35.448V16.5206ZM36.8903 14.1187H37.3198V15.8264H37.6577C38.0959 15.8264 38.446 15.9453 38.7077 16.1828C38.9696 16.42 39.1007 16.7793 39.1007 17.2602C39.1007 17.7474 38.9636 18.1127 38.6894 18.3562C38.4155 18.5997 38.0624 18.7215 37.6302 18.7215H36.8903V14.1189V14.1187ZM37.3198 16.1643V18.3837H37.5937C37.9163 18.3837 38.178 18.2966 38.3791 18.1234C38.5804 17.9498 38.6805 17.6653 38.6805 17.2692C38.6805 16.8797 38.5891 16.5981 38.4065 16.4246C38.224 16.251 37.9683 16.1643 37.6394 16.1643H37.3198ZM40.2606 14.484V18.7215H39.8406V14.1189H41.7856V14.484H40.2606ZM44.589 15.5158C44.589 15.3942 44.592 15.2829 44.5983 15.1825C44.6043 15.0822 44.6133 14.9831 44.6255 14.886H44.5983C44.5676 14.9894 44.5311 15.0881 44.4887 15.1825C44.4462 15.2769 44.4003 15.3757 44.3516 15.4793L42.8541 18.7215H42.4885V14.1189H42.8905V17.3152C42.8912 17.5319 42.879 17.7484 42.8541 17.9637H42.8813C42.9118 17.86 42.9482 17.758 42.9909 17.6577C43.0333 17.557 43.079 17.455 43.128 17.3516L44.6255 14.1187H45.0001V18.7213H44.589V15.5163V15.5158Z" fill="#4376FB"/>
</svg>
