<svg width="16" height="17" viewBox="0 0 16 17" fill="none" xmlns="http://www.w3.org/2000/svg">
<path fill-rule="evenodd" clip-rule="evenodd" d="M0 3.86364C0 3.43687 0.358172 3.09091 0.8 3.09091H15.2C15.6418 3.09091 16 3.43687 16 3.86364C16 4.2904 15.6418 4.63636 15.2 4.63636H0.8C0.358172 4.63636 0 4.2904 0 3.86364Z" fill="#9BA6C1"/>
<path fill-rule="evenodd" clip-rule="evenodd" d="M6.4 1.54545C6.18783 1.54545 5.98434 1.62687 5.83431 1.77178C5.68429 1.9167 5.6 2.11324 5.6 2.31818V3.09091H10.4V2.31818C10.4 2.11324 10.3157 1.9167 10.1657 1.77178C10.0157 1.62687 9.81217 1.54545 9.6 1.54545H6.4ZM12 3.09091V2.31818C12 1.70336 11.7471 1.11372 11.2971 0.67898C10.847 0.244236 10.2365 0 9.6 0H6.4C5.76348 0 5.15303 0.244236 4.70294 0.67898C4.25286 1.11372 4 1.70336 4 2.31818V3.09091H2.4C1.95817 3.09091 1.6 3.43687 1.6 3.86364V14.6818C1.6 15.2966 1.85286 15.8863 2.30294 16.321C2.75303 16.7558 3.36348 17 4 17H12C12.6365 17 13.247 16.7558 13.6971 16.321C14.1471 15.8863 14.4 15.2966 14.4 14.6818V3.86364C14.4 3.43687 14.0418 3.09091 13.6 3.09091H12ZM3.2 4.63636V14.6818C3.2 14.8868 3.28429 15.0833 3.43431 15.2282C3.58434 15.3731 3.78783 15.4545 4 15.4545H12C12.2122 15.4545 12.4157 15.3731 12.5657 15.2282C12.7157 15.0833 12.8 14.8868 12.8 14.6818V4.63636H3.2Z" fill="#9BA6C1"/>
<path fill-rule="evenodd" clip-rule="evenodd" d="M6.4 6.95455C6.84183 6.95455 7.2 7.30051 7.2 7.72727V12.3636C7.2 12.7904 6.84183 13.1364 6.4 13.1364C5.95817 13.1364 5.6 12.7904 5.6 12.3636V7.72727C5.6 7.30051 5.95817 6.95455 6.4 6.95455Z" fill="#9BA6C1"/>
<path fill-rule="evenodd" clip-rule="evenodd" d="M9.6 6.95455C10.0418 6.95455 10.4 7.30051 10.4 7.72727V12.3636C10.4 12.7904 10.0418 13.1364 9.6 13.1364C9.15817 13.1364 8.8 12.7904 8.8 12.3636V7.72727C8.8 7.30051 9.15817 6.95455 9.6 6.95455Z" fill="#9BA6C1"/>
</svg>
