<svg width="64" height="48" viewBox="0 0 64 48" fill="none" xmlns="http://www.w3.org/2000/svg">
<rect width="50" height="32" rx="3" fill="#E4E9F8"/>
<path d="M22.4664 21.5355H19.3882L21.3136 10.5H24.3916L22.4664 21.5355Z" fill="#4376FB"/>
<path d="M33.6256 10.7699C33.0184 10.5466 32.0554 10.3 30.8646 10.3C27.8247 10.3 25.684 11.8027 25.6709 13.951C25.6457 15.536 27.2036 16.4164 28.3688 16.9448C29.5597 17.4849 29.9645 17.8374 29.9645 18.3187C29.9524 19.058 29.0022 19.3988 28.1159 19.3988C26.8869 19.3988 26.2284 19.2231 25.2277 18.8118L24.8224 18.6355L24.3916 21.1127C25.1136 21.4176 26.4437 21.6882 27.8247 21.7C31.0546 21.7 33.1574 20.2207 33.1823 17.9313C33.1946 16.6751 32.372 15.7125 30.5985 14.9259C29.5218 14.421 28.8625 14.0805 28.8625 13.5639C28.8751 13.0942 29.4201 12.6131 30.6355 12.6131C31.6362 12.5896 32.3715 12.8125 32.9285 13.0357L33.2069 13.1529L33.6256 10.7699Z" fill="#4376FB"/>
<path d="M37.7167 17.626C37.9702 16.992 38.9457 14.5384 38.9457 14.5384C38.9329 14.5619 39.1987 13.8927 39.3507 13.4819L39.5658 14.4327C39.5658 14.4327 40.1487 17.0743 40.2753 17.626C39.7942 17.626 38.3247 17.626 37.7167 17.626ZM41.5164 10.5H39.1354C38.4011 10.5 37.8433 10.6994 37.5265 11.4156L32.9541 21.5353H36.184C36.184 21.5353 36.7158 20.1733 36.8301 19.88C37.1844 19.88 40.3265 19.88 40.7823 19.88C40.8707 20.2674 41.1496 21.5353 41.1496 21.5353H43.9998L41.5164 10.5Z" fill="#4376FB"/>
<path d="M16.8173 10.5L13.8026 18.0252L13.4732 16.499C12.9158 14.7379 11.1679 12.8246 9.21729 11.8733L11.9786 21.5238H15.2338L20.0723 10.5H16.8173Z" fill="#4376FB"/>
<path d="M11.0033 10.5H6.05067L6 10.723C9.86336 11.6388 12.422 13.8462 13.4732 16.4994L12.3966 11.4276C12.2193 10.7228 11.6746 10.5232 11.0033 10.5Z" fill="#5F77B4"/>
<rect x="14" y="16" width="50" height="32" rx="3" fill="#E4E9F8"/>
<path d="M43.3635 39.8646H34.6143V24.1407H43.3635V39.8646Z" fill="#5F77B4"/>
<path d="M35.1748 32.0013C35.1748 28.8117 36.6682 25.9704 38.9938 24.1394C37.2931 22.8005 35.1468 22.0013 32.8142 22.0013C27.2919 22.0013 22.8154 26.4784 22.8154 32.0013C22.8154 37.5243 27.2919 42.0013 32.8142 42.0013C35.1468 42.0013 37.2931 41.2022 38.9938 39.8633C36.6682 38.0322 35.1748 35.191 35.1748 32.0013Z" fill="#4376FB"/>
<path d="M55.1634 32.0013C55.1634 37.5243 50.687 42.0013 45.1647 42.0013C42.832 42.0013 40.6857 41.2022 38.9844 39.8633C41.3107 38.0322 42.8041 35.191 42.8041 32.0013C42.8041 28.8117 41.3107 25.9704 38.9844 24.1394C40.6857 22.8005 42.832 22.0013 45.1647 22.0013C50.687 22.0013 55.1634 26.4784 55.1634 32.0013Z" fill="#9BB7FF"/>
<path d="M30.3393 32.0646C30.3393 31.6278 30.6256 31.269 31.0933 31.269C31.5402 31.269 31.8419 31.6123 31.8419 32.0646C31.8419 32.5169 31.5402 32.8602 31.0933 32.8602C30.6256 32.8602 30.3393 32.5014 30.3393 32.0646ZM32.3513 32.0646V30.822H31.811V31.1238C31.6396 30.9 31.3796 30.7596 31.0261 30.7596C30.3292 30.7596 29.7829 31.3059 29.7829 32.0646C29.7829 32.8239 30.3292 33.3696 31.0261 33.3696C31.3796 33.3696 31.6396 33.2292 31.811 33.0054V33.3071H32.3513V32.0646ZM50.6111 32.0646C50.6111 31.6278 50.8974 31.269 51.3651 31.269C51.8126 31.269 52.1137 31.6123 52.1137 32.0646C52.1137 32.5169 51.8126 32.8602 51.3651 32.8602C50.8974 32.8602 50.6111 32.5014 50.6111 32.0646ZM52.6237 32.0646V29.8241H52.0828V31.1238C51.9114 30.9 51.6513 30.7596 51.2979 30.7596C50.601 30.7596 50.0547 31.3059 50.0547 32.0646C50.0547 32.8239 50.601 33.3696 51.2979 33.3696C51.6513 33.3696 51.9114 33.2292 52.0828 33.0054V33.3071H52.6237V32.0646ZM39.0586 31.2434C39.4067 31.2434 39.6305 31.4618 39.6876 31.8462H38.3981C38.4558 31.4874 38.6736 31.2434 39.0586 31.2434ZM39.0693 30.7596C38.3409 30.7596 37.8315 31.2898 37.8315 32.0646C37.8315 32.8549 38.3618 33.3696 39.1056 33.3696C39.4799 33.3696 39.8227 33.2762 40.1244 33.0215L39.8596 32.621C39.6513 32.787 39.3859 32.8811 39.1366 32.8811C38.7884 32.8811 38.4713 32.7198 38.3933 32.2723H40.2387C40.244 32.205 40.2494 32.1372 40.2494 32.0646C40.244 31.2898 39.7656 30.7596 39.0693 30.7596ZM45.5939 32.0646C45.5939 31.6278 45.8802 31.269 46.3479 31.269C46.7948 31.269 47.0965 31.6123 47.0965 32.0646C47.0965 32.5169 46.7948 32.8602 46.3479 32.8602C45.8802 32.8602 45.5939 32.5014 45.5939 32.0646ZM47.6059 32.0646V30.822H47.0656V31.1238C46.8936 30.9 46.6341 30.7596 46.2806 30.7596C45.5838 30.7596 45.0375 31.3059 45.0375 32.0646C45.0375 32.8239 45.5838 33.3696 46.2806 33.3696C46.6341 33.3696 46.8936 33.2292 47.0656 33.0054V33.3071H47.6059V32.0646ZM42.5423 32.0646C42.5423 32.8186 43.0672 33.3696 43.8681 33.3696C44.2425 33.3696 44.4918 33.2863 44.762 33.0733L44.5025 32.6365C44.2996 32.7823 44.0865 32.8602 43.8521 32.8602C43.4206 32.8549 43.1035 32.543 43.1035 32.0646C43.1035 31.5861 43.4206 31.2743 43.8521 31.269C44.0865 31.269 44.2996 31.3469 44.5025 31.4927L44.762 31.0559C44.4918 30.8429 44.2425 30.7596 43.8681 30.7596C43.0672 30.7596 42.5423 31.3106 42.5423 32.0646ZM49.509 30.7596C49.1972 30.7596 48.9943 30.9054 48.8538 31.1238V30.822H48.3182V33.3071H48.8592V31.914C48.8592 31.5028 49.0359 31.2743 49.3894 31.2743C49.4989 31.2743 49.6132 31.2898 49.7274 31.3368L49.894 30.8274C49.7744 30.7804 49.6185 30.7596 49.509 30.7596ZM35.0239 31.0196C34.7638 30.8482 34.4056 30.7596 34.0105 30.7596C33.3808 30.7596 32.9756 31.0613 32.9756 31.5552C32.9756 31.9605 33.2773 32.2104 33.8331 32.2883L34.0884 32.3246C34.3848 32.3663 34.5246 32.4443 34.5246 32.5847C34.5246 32.7769 34.327 32.8864 33.9581 32.8864C33.5838 32.8864 33.3136 32.7668 33.1315 32.6264L32.8768 33.0471C33.1732 33.2655 33.5475 33.3696 33.9527 33.3696C34.6704 33.3696 35.0864 33.0316 35.0864 32.5585C35.0864 32.1217 34.7591 31.8932 34.2181 31.8152L33.9634 31.7784C33.7296 31.7474 33.5421 31.701 33.5421 31.5344C33.5421 31.3523 33.7189 31.2434 34.0152 31.2434C34.3324 31.2434 34.6395 31.363 34.79 31.4564L35.0239 31.0196ZM41.996 30.7596C41.6842 30.7596 41.4812 30.9054 41.3414 31.1238V30.822H40.8058V33.3071H41.3461V31.914C41.3461 31.5028 41.5229 31.2743 41.8764 31.2743C41.9859 31.2743 42.1001 31.2898 42.2144 31.3368L42.381 30.8274C42.2614 30.7804 42.1055 30.7596 41.996 30.7596ZM37.3846 30.822H36.5009V30.0681H35.9546V30.822H35.4506V31.316H35.9546V32.4496C35.9546 33.0263 36.1784 33.3696 36.8175 33.3696C37.052 33.3696 37.3221 33.297 37.4935 33.1774L37.3376 32.7144C37.1763 32.8079 36.9996 32.8549 36.8592 32.8549C36.589 32.8549 36.5009 32.6882 36.5009 32.4389V31.316H37.3846V30.822ZM29.3051 33.3071V31.7474C29.3051 31.1601 28.9307 30.7649 28.3273 30.7596C28.0101 30.7542 27.6828 30.853 27.4537 31.2017C27.2823 30.9262 27.0122 30.7596 26.6325 30.7596C26.3671 30.7596 26.1076 30.8375 25.9047 31.1285V30.822H25.3638V33.3071H25.9095V31.9295C25.9095 31.4981 26.1487 31.269 26.5182 31.269C26.8771 31.269 27.0586 31.5028 27.0586 31.9242V33.3071H27.6049V31.9295C27.6049 31.4981 27.8542 31.269 28.2131 31.269C28.582 31.269 28.7588 31.5028 28.7588 31.9242V33.3071H29.3051Z" fill="white"/>
</svg>
