<svg width="50" height="32" viewBox="0 0 50 32" fill="none" xmlns="http://www.w3.org/2000/svg">
<rect width="50" height="32" rx="3" fill="#E4E9F8"/>
<path d="M14.874 20.9H12.8013C12.6595 20.9 12.5389 21.0031 12.5167 21.1431L11.6784 26.458C11.6618 26.5629 11.743 26.6574 11.8494 26.6574H12.8389C12.9807 26.6574 13.1014 26.5544 13.1235 26.4141L13.3496 24.9806C13.3714 24.8402 13.4923 24.7372 13.6338 24.7372H14.29C15.6553 24.7372 16.4433 24.0765 16.6491 22.7672C16.7418 22.1944 16.653 21.7444 16.3848 21.4292C16.0902 21.0831 15.5677 20.9 14.874 20.9ZM15.1131 22.8412C14.9998 23.5849 14.4315 23.5849 13.8821 23.5849H13.5693L13.7887 22.1959C13.8018 22.112 13.8745 22.0502 13.9593 22.0502H14.1027C14.477 22.0502 14.8301 22.0502 15.0125 22.2635C15.1213 22.3908 15.1547 22.5799 15.1131 22.8412Z" fill="#4376FB"/>
<path d="M21.0695 22.8166H20.077C19.9924 22.8166 19.9194 22.8784 19.9064 22.9624L19.8624 23.24L19.793 23.1394C19.5781 22.8275 19.099 22.7233 18.6207 22.7233C17.5239 22.7233 16.5871 23.554 16.4047 24.7193C16.3098 25.3006 16.4447 25.8564 16.7744 26.244C17.0769 26.6004 17.5097 26.7489 18.0246 26.7489C18.9083 26.7489 19.3984 26.1807 19.3984 26.1807L19.3542 26.4565C19.3375 26.5619 19.4187 26.6565 19.5245 26.6565H20.4185C20.5607 26.6565 20.6807 26.5535 20.7031 26.4131L21.2396 23.016C21.2565 22.9115 21.1756 22.8166 21.0695 22.8166ZM19.686 24.7484C19.5903 25.3154 19.1402 25.6961 18.5662 25.6961C18.278 25.6961 18.0476 25.6036 17.8997 25.4285C17.753 25.2545 17.6973 25.0069 17.744 24.7311C17.8334 24.1689 18.291 23.7758 18.8562 23.7758C19.1381 23.7758 19.3672 23.8695 19.5181 24.0462C19.6694 24.2247 19.7294 24.4738 19.686 24.7484Z" fill="#4376FB"/>
<path d="M26.3559 22.8165H25.3585C25.2633 22.8165 25.1739 22.8638 25.12 22.9429L23.7443 24.9692L23.1612 23.022C23.1245 22.9002 23.0121 22.8165 22.8848 22.8165H21.9047C21.7856 22.8165 21.7028 22.9329 21.7407 23.045L22.8394 26.2691L21.8065 27.7272C21.7253 27.842 21.8071 27.9999 21.9474 27.9999H22.9436C23.0382 27.9999 23.1267 27.9539 23.1803 27.8763L26.4977 23.0878C26.5771 22.9732 26.4956 22.8165 26.3559 22.8165Z" fill="#4376FB"/>
<path d="M29.6577 20.8994H27.5847C27.4432 20.8994 27.3226 21.0025 27.3004 21.1425L26.4621 26.4574C26.4455 26.5623 26.5267 26.6568 26.6325 26.6568H27.6962C27.795 26.6568 27.8796 26.5847 27.8951 26.4865L28.133 24.9799C28.1548 24.8396 28.2757 24.7366 28.4172 24.7366H29.0731C30.4387 24.7366 31.2264 24.0759 31.4325 22.7666C31.5255 22.1938 31.4361 21.7438 31.1679 21.4286C30.8736 21.0825 30.3514 20.8994 29.6577 20.8994ZM29.8968 22.8406C29.7838 23.5843 29.2155 23.5843 28.6658 23.5843H28.3533L28.573 22.1953C28.586 22.1114 28.6582 22.0496 28.7433 22.0496H28.8867C29.2607 22.0496 29.6141 22.0496 29.7965 22.2629C29.9053 22.3902 29.9383 22.5793 29.8968 22.8406Z" fill="#4376FB"/>
<path d="M35.8534 22.8166H34.8615C34.7763 22.8166 34.7039 22.8784 34.6911 22.9624L34.6472 23.24L34.5775 23.1394C34.3626 22.8275 33.8838 22.7233 33.4055 22.7233C32.3087 22.7233 31.3722 23.554 31.1898 24.7193C31.0952 25.3006 31.2295 25.8564 31.5592 26.244C31.8623 26.6004 32.2945 26.7489 32.8094 26.7489C33.6931 26.7489 34.1832 26.1807 34.1832 26.1807L34.1389 26.4565C34.1223 26.5619 34.2035 26.6565 34.3099 26.6565H35.2036C35.3452 26.6565 35.4658 26.5535 35.4879 26.4131L36.0246 23.016C36.041 22.9115 35.9598 22.8166 35.8534 22.8166ZM34.4699 24.7484C34.3747 25.3154 33.9241 25.6961 33.35 25.6961C33.0624 25.6961 32.8315 25.6036 32.6836 25.4285C32.5369 25.2545 32.4817 25.0069 32.5278 24.7311C32.6178 24.1689 33.0749 23.7758 33.6401 23.7758C33.9219 23.7758 34.1511 23.8695 34.302 24.0462C34.4538 24.2247 34.5138 24.4738 34.4699 24.7484Z" fill="#4376FB"/>
<path d="M37.0238 21.0451L36.1731 26.4573C36.1564 26.5622 36.2376 26.6568 36.3434 26.6568H37.1987C37.3408 26.6568 37.4614 26.5537 37.4832 26.4134L38.3221 21.0988C38.3388 20.9939 38.2576 20.899 38.1518 20.899H37.1941C37.1096 20.8994 37.0368 20.9612 37.0238 21.0451Z" fill="#4376FB"/>
<path opacity="0.68" d="M30.116 7.42382C30.2805 6.37542 30.1149 5.66222 29.5479 5.016C28.9237 4.30472 27.7959 4 26.3531 4H22.1647C21.8699 4 21.6187 4.21454 21.5728 4.50594L19.8287 15.5653C19.7943 15.7835 19.963 15.9808 20.1838 15.9808H22.7695L22.591 17.1125C22.561 17.3034 22.7084 17.4759 22.9016 17.4759H25.0812C25.3391 17.4759 25.5587 17.2883 25.5989 17.0334L25.6204 16.9225L26.0309 14.3189L26.0574 14.1751C26.0976 13.9203 26.3172 13.7324 26.5751 13.7324H26.9011C29.0126 13.7324 30.6659 12.8747 31.1489 10.3939C31.3508 9.35726 31.2464 8.49198 30.7126 7.88364C30.5513 7.69999 30.3503 7.5479 30.116 7.42382Z" fill="white"/>
<path opacity="0.7" d="M30.116 7.42382C30.2805 6.37542 30.1149 5.66222 29.5479 5.016C28.9237 4.30472 27.7959 4 26.3531 4H22.1647C21.8699 4 21.6187 4.21454 21.5728 4.50594L19.8287 15.5653C19.7943 15.7835 19.963 15.9808 20.1838 15.9808H22.7695L23.419 11.862L23.3988 11.9911C23.4448 11.6999 23.6936 11.4852 23.9886 11.4852H25.2176C27.6312 11.4852 29.5212 10.5046 30.0732 7.66883C30.0897 7.5851 30.1035 7.5037 30.116 7.42382Z" fill="#ADC4FF"/>
<path d="M24.1168 7.43768C24.1444 7.26254 24.257 7.11896 24.4083 7.04649C24.4771 7.01355 24.5541 6.99515 24.6347 6.99515H27.9178C28.3068 6.99515 28.6695 7.02068 29.0009 7.07408C29.0956 7.08931 29.1879 7.10688 29.2775 7.12679C29.367 7.14669 29.454 7.16879 29.5382 7.1935C29.5803 7.20571 29.6216 7.21875 29.6624 7.2322C29.8252 7.28628 29.9769 7.34997 30.1163 7.42395C30.2808 6.37556 30.1152 5.66236 29.5482 5.01614C28.9237 4.30472 27.7959 4 26.3531 4H22.1647C21.8699 4 21.6187 4.21454 21.5728 4.50594L19.8287 15.5653C19.7943 15.7835 19.963 15.9808 20.1838 15.9808H22.7695L23.419 11.862L24.1168 7.43768Z" fill="#4376FB"/>
</svg>
