<svg width="50" height="32" viewBox="0 0 50 32" fill="none" xmlns="http://www.w3.org/2000/svg">
<rect width="50" height="32" rx="3" fill="#E4E9F8"/>
<path d="M24.5991 17.6398H25.2263V19.0455H25.6795L26.4927 17.6398H27.1784L26.2024 19.2896V19.3012L27.2366 21.1016H26.5277L25.6911 19.5911H25.2383V21.1016H24.6107V17.6394H24.5991V17.6398ZM28.6423 18.5577C29.397 18.5577 30.013 19.1036 30.013 19.8587C30.013 20.6257 29.4089 21.1601 28.6539 21.1601C27.8985 21.1601 27.2943 20.6257 27.2943 19.8587C27.2828 19.0921 27.8869 18.5577 28.6423 18.5577ZM30.5009 18.6154H31.0934V20.5675H31.8719V18.6158H32.4641V20.5675H33.2427V18.6158H33.8352V21.1016H30.524V18.6154H30.5009ZM35.5898 18.5577C36.2983 18.5577 36.6933 19.0805 36.6933 19.7312C36.6913 19.8129 36.6836 19.8944 36.6702 19.975H34.9622C34.9972 20.4047 35.3341 20.6372 35.7061 20.6372C35.9614 20.6372 36.217 20.5209 36.4145 20.37L36.6586 20.8116C36.403 21.0319 36.0195 21.1716 35.6595 21.1716C34.8344 21.1716 34.3234 20.5791 34.3234 19.8703C34.3234 19.0921 34.8459 18.5577 35.5898 18.5577ZM36.9836 20.5791C37.2859 20.5325 37.5065 20.2772 37.5065 19.394V18.6158H39.3192V21.1016H38.7032V19.1148H38.099V19.3936C38.099 20.474 37.8087 21.1016 36.9836 21.1247V20.5787V20.5791ZM41.0849 18.5577C41.7934 18.5577 42.1884 19.0805 42.1884 19.7312C42.1865 19.8129 42.1788 19.8944 42.1653 19.975H40.4574C40.4924 20.4047 40.8293 20.6372 41.2012 20.6372C41.4565 20.6372 41.7122 20.5209 41.9097 20.37L42.1538 20.8116C41.8981 21.0319 41.5146 21.1716 41.1546 21.1716C40.3299 21.1716 39.8186 20.5791 39.8186 19.8703C39.8186 19.0921 40.3414 18.5577 41.0849 18.5577ZM42.6998 18.6154H43.3154V19.5684H43.6177L44.2218 18.6158H44.9071L44.1171 19.8006V19.8125L44.9999 21.1016H44.2799L43.6292 20.0912H43.3042V21.1016H42.6878V18.6154H42.6994H42.6998ZM28.6423 20.6257C29.0489 20.6257 29.3858 20.3119 29.3858 19.8471C29.3858 19.394 29.0489 19.0686 28.6419 19.0686C28.2357 19.0686 27.9104 19.3828 27.9104 19.8471C27.9104 20.3119 28.2354 20.6257 28.6423 20.6257ZM36.0661 19.5453C36.0661 19.2199 35.8451 19.0224 35.5663 19.0224C35.2529 19.0224 35.0203 19.2315 34.9622 19.5453H36.0661ZM41.5612 19.5453C41.5612 19.2199 41.3406 19.0224 41.0618 19.0224C40.7477 19.0224 40.5155 19.2315 40.4574 19.5453H41.5612Z" fill="#4376FB"/>
<path d="M33.2778 10.0997V15.9668C33.2782 15.9882 33.2744 16.0096 33.2664 16.0295C33.2584 16.0495 33.2464 16.0676 33.2313 16.0828C33.2161 16.098 33.198 16.1099 33.178 16.1179C33.1581 16.1259 33.1367 16.1298 33.1153 16.1293H31.9186C31.8971 16.1298 31.8758 16.1259 31.8558 16.1179C31.8359 16.1099 31.8178 16.098 31.8026 16.0828C31.7874 16.0676 31.7755 16.0495 31.7675 16.0295C31.7595 16.0096 31.7556 15.9882 31.7561 15.9668V10.0997C31.7556 10.0782 31.7595 10.0569 31.7675 10.0369C31.7755 10.017 31.7874 9.99887 31.8026 9.98369C31.8178 9.9685 31.8359 9.95655 31.8558 9.94856C31.8758 9.94056 31.8971 9.9367 31.9186 9.93719H33.1153C33.1367 9.9367 33.1581 9.94056 33.178 9.94856C33.198 9.95655 33.2161 9.9685 33.2313 9.98369C33.2464 9.99887 33.2584 10.017 33.2664 10.0369C33.2744 10.0569 33.2782 10.0782 33.2778 10.0997ZM42.6186 9.93719C42.6652 9.93719 42.7233 9.9603 42.7811 10.0069C42.8161 10.0415 42.8161 10.0997 42.8045 10.1463L40.8293 16.0249C40.8174 16.0553 40.7966 16.0815 40.7698 16.1001C40.7429 16.1188 40.7111 16.129 40.6784 16.1296H39.6096C39.5399 16.1296 39.4817 16.0946 39.4586 16.0249L38.3078 12.5977L37.1577 16.0245C37.1457 16.055 37.125 16.0811 37.0981 16.0998C37.0713 16.1184 37.0395 16.1287 37.0068 16.1293H35.9379C35.8683 16.1293 35.8101 16.0946 35.787 16.0245L33.8118 10.1459C33.8003 10.0997 33.8003 10.0531 33.8349 10.0069C33.8584 9.9603 33.9165 9.93719 33.9628 9.93719H35.2988C35.3685 9.93719 35.4266 9.98341 35.4501 10.0531L36.507 13.5268L37.669 10.0531C37.681 10.0227 37.7018 9.9965 37.7286 9.97786C37.7555 9.95922 37.7873 9.94897 37.82 9.94839H38.761C38.8307 9.94839 38.8888 9.98341 38.9119 10.0531L40.0739 13.5268L41.1312 10.0531C41.1407 10.0202 41.1605 9.99119 41.1876 9.97033C41.2148 9.94947 41.2479 9.93786 41.2822 9.93719H42.6182H42.6186ZM44.64 9.93719C44.7212 9.93719 44.7909 10.0069 44.8025 10.0997V15.9668C44.803 15.9882 44.7991 16.0096 44.7911 16.0295C44.7831 16.0495 44.7712 16.0676 44.756 16.0828C44.7408 16.098 44.7227 16.1099 44.7028 16.1179C44.6828 16.1259 44.6615 16.1298 44.64 16.1293H43.4433C43.4218 16.1298 43.4005 16.1259 43.3806 16.1179C43.3606 16.1099 43.3425 16.098 43.3273 16.0828C43.3121 16.0676 43.3002 16.0495 43.2922 16.0295C43.2842 16.0096 43.2803 15.9882 43.2808 15.9668V10.0997C43.2803 10.0782 43.2842 10.0569 43.2922 10.0369C43.3002 10.017 43.3121 9.99887 43.3273 9.98369C43.3425 9.9685 43.3606 9.95655 43.3806 9.94856C43.4005 9.94056 43.4218 9.9367 43.4433 9.93719H44.64ZM31.0588 15.9205C31.1285 16.0018 31.0704 16.1177 30.9657 16.1177H29.5018C29.473 16.1185 29.4443 16.1126 29.4182 16.1005C29.392 16.0884 29.3689 16.0705 29.3508 16.048L29.1071 15.7461C28.5958 16.0711 27.9913 16.269 27.3525 16.269C25.5637 16.269 24.1113 14.8167 24.1113 13.0274C24.1113 11.2382 25.5637 9.78589 27.3525 9.78589C29.1418 9.78589 30.5941 11.2382 30.5941 13.0274C30.5941 13.6666 30.4081 14.2707 30.0828 14.7817L31.0588 15.9202V15.9205ZM18.8249 18.7667C19.1271 18.883 19.2434 19.3358 19.2665 19.5333C19.3131 19.8937 19.2087 20.0331 19.0925 20.0331C18.9762 20.0331 18.8133 19.8937 18.6393 19.6149C18.4649 19.3358 18.3952 19.0224 18.4884 18.8595C18.5461 18.7548 18.674 18.7086 18.8253 18.7667H18.8249ZM17.0591 20.0796C17.2451 20.0796 17.4542 20.1609 17.6401 20.3234C18.0002 20.6256 18.1049 20.9741 17.9189 21.2297C17.8142 21.3576 17.6401 21.4388 17.4426 21.4388C17.2451 21.4388 17.036 21.3691 16.8967 21.2413C16.5713 20.9625 16.4785 20.4974 16.6872 20.2421C16.7688 20.1374 16.8967 20.0796 17.0591 20.0796ZM12.9932 23.4371C8.5781 23.4371 5 19.8587 5 15.4439C5 11.0291 8.57846 7.45105 12.9928 7.45105C17.4076 7.45105 20.9861 11.0295 20.9861 15.4439C20.9861 16.9424 20.5679 18.3486 19.8594 19.5452C19.836 19.5799 19.7778 19.5683 19.7663 19.5218C19.4875 17.5585 18.2908 16.4777 16.5482 16.1527C16.3969 16.1293 16.3738 16.0365 16.5713 16.0133C17.1057 15.9668 17.8608 15.9783 18.2558 16.048C18.2789 15.8505 18.2908 15.6414 18.2908 15.4323C18.2908 12.5161 15.9206 10.1459 13.0044 10.1459C10.0886 10.1459 7.71833 12.5161 7.71833 15.4323C7.71833 18.3486 10.0886 20.7188 13.0048 20.7188H13.2485C13.1657 20.2471 13.1306 19.7683 13.1438 19.2896C13.1557 18.9642 13.2254 18.9176 13.3648 19.1733C14.0967 20.4397 15.1425 21.5782 17.187 22.0314C18.8599 22.4033 20.5329 22.833 22.3337 25.1216C22.4962 25.3191 22.2524 25.5282 22.0665 25.3657C20.231 23.739 18.5581 23.2046 17.036 23.2046C15.3281 23.2165 14.1664 23.4371 12.9928 23.4371H12.9932ZM28.1542 14.6192L27.515 13.8406C27.4457 13.7594 27.5038 13.6316 27.6082 13.6316H28.9558C29.0255 13.4456 29.0605 13.2365 29.0605 13.0274C29.0605 12.0633 28.3401 11.2267 27.3525 11.2267C26.3653 11.2267 25.6446 12.0633 25.6446 13.0274C25.6446 13.9916 26.3653 14.8167 27.3525 14.8167C27.6313 14.8282 27.9104 14.747 28.1542 14.6192Z" fill="#4376FB"/>
</svg>
