<svg width="50" height="32" viewBox="0 0 50 32" fill="none" xmlns="http://www.w3.org/2000/svg">
<rect width="50" height="32" rx="3" fill="#E4E9F8"/>
<path d="M14.0187 24.6992C14.081 24.5988 14.1447 24.4999 14.2114 24.4014H14.2502V26.627H15.2348V22.8484H14.2502L13.148 24.5717C13.0857 24.6698 13.0242 24.765 12.9628 24.8569C12.9014 24.9503 12.839 25.0483 12.7781 25.151H12.7389V22.8484H11.7547V26.627H12.7389C12.9256 26.3621 13.1067 26.0928 13.282 25.8194C13.46 25.5441 13.6381 25.2719 13.8184 25.004C13.8901 24.9013 13.9573 24.7995 14.0187 24.6992ZM17.1476 25.0581H18.6122V26.6265H19.5968V22.8484H18.6127V24.2861H17.1481V22.8484H16.1634V26.627H17.1476V25.0581ZM22.5317 25.7616C22.4338 25.8339 22.3047 25.8699 22.1462 25.8699H21.5106V24.9424H22.1382C22.3029 24.9424 22.4338 24.9816 22.5313 25.0581C22.6283 25.1356 22.6773 25.2518 22.6773 25.4064C22.6773 25.5711 22.6283 25.6897 22.5313 25.7616H22.5317ZM23.662 25.4143C23.662 25.0273 23.5307 24.7276 23.2702 24.5134C23.009 24.3001 22.6591 24.1927 22.2201 24.1927H21.5106V22.8484H20.5259V26.627H22.2633C22.688 26.627 23.0272 26.5299 23.2805 26.3376C23.5351 26.1434 23.6615 25.8363 23.6615 25.4143H23.662ZM35.3222 25.8704C35.202 25.9263 35.0747 25.96 34.9421 25.9702V23.5285C35.2648 23.5546 35.5132 23.6788 35.6877 23.9028C35.8622 24.1274 35.9495 24.4046 35.9495 24.7337C35.9495 24.9298 35.921 25.1025 35.8644 25.2518C35.8083 25.4012 35.734 25.5272 35.6419 25.6299C35.5493 25.7326 35.4429 25.8134 35.3222 25.8699V25.8704ZM34.0179 25.9628C33.8819 25.9529 33.7484 25.919 33.6231 25.8624C33.5001 25.8064 33.3894 25.7246 33.2977 25.622C33.2013 25.5136 33.1262 25.3864 33.0765 25.2476C33.0191 25.0831 32.9914 24.9088 32.995 24.7337C32.995 24.4046 33.0845 24.1274 33.2625 23.9028C33.4406 23.6788 33.693 23.5546 34.0175 23.5285V25.9628H34.0179ZM36.3269 26.1317C36.4997 25.9628 36.6359 25.7597 36.7365 25.5216C36.8362 25.285 36.8874 25.0147 36.8874 24.7099C36.8874 24.427 36.8384 24.1694 36.7405 23.9379C36.6462 23.711 36.5082 23.5071 36.3349 23.339C36.1553 23.1672 35.9457 23.0335 35.7175 22.9455C35.4688 22.8483 35.2072 22.7921 34.9421 22.7788V21.3579L34.0175 21.7211V22.7788C33.7534 22.7927 33.4931 22.8515 33.247 22.9529C33.0175 23.0467 32.806 23.1828 32.6224 23.3548C32.4418 23.5257 32.298 23.7349 32.2005 23.9685C32.103 24.2022 32.0541 24.4549 32.0571 24.7099C32.0571 25.0147 32.1038 25.2859 32.1973 25.5258C32.2898 25.7648 32.423 25.9711 32.5961 26.1434C32.7689 26.3161 32.9758 26.4506 33.2158 26.5462C33.4733 26.6444 33.7437 26.7001 34.0175 26.7115V28.3125L34.9492 27.9485V26.704C35.2111 26.691 35.4691 26.6336 35.7135 26.5341C35.9407 26.4425 36.149 26.3059 36.3269 26.1317ZM41.2116 25.2518C41.155 25.4012 41.0807 25.5272 40.989 25.6299C40.8964 25.7326 40.7891 25.8134 40.6694 25.8699C40.5491 25.9264 40.4203 25.9603 40.2888 25.9702V23.5285C40.6111 23.5542 40.8599 23.6788 41.0349 23.9028C41.2089 24.1274 41.2957 24.4046 41.2957 24.7337C41.2957 24.9298 41.2685 25.1025 41.2111 25.2518H41.2116ZM39.3655 25.9623C39.2291 25.9527 39.0953 25.9187 38.9698 25.8619C38.847 25.8061 38.7364 25.7244 38.6448 25.622C38.5481 25.5137 38.4729 25.3863 38.4236 25.2472C38.3664 25.0828 38.3389 24.9087 38.3426 24.7337C38.3426 24.4046 38.4316 24.1274 38.6097 23.9028C38.7877 23.6788 39.0401 23.5542 39.3655 23.5285V25.9623ZM42.0836 25.5221C42.1842 25.285 42.2341 25.0147 42.2341 24.7099C42.2341 24.427 42.1851 24.1694 42.0876 23.9379C41.9934 23.7111 41.8555 23.5072 41.6825 23.339C41.5027 23.1672 41.2929 23.0336 41.0647 22.9455C40.8158 22.8482 40.5541 22.792 40.2888 22.7788V21.3579L39.3655 21.7211V22.7788C39.1011 22.7924 38.8405 22.8512 38.5941 22.9529C38.3647 23.0464 38.1532 23.1826 37.97 23.3548C37.795 23.5216 37.6541 23.7239 37.556 23.9495C37.4532 24.1885 37.4015 24.4482 37.4046 24.7104C37.4046 25.0147 37.4505 25.2864 37.5444 25.5258C37.637 25.7648 37.7701 25.9711 37.9433 26.1439C38.1164 26.3166 38.323 26.4506 38.5634 26.5462C38.8033 26.6405 39.0708 26.6961 39.3655 26.7115V28.3125L40.2959 27.9485V26.7045C40.5579 26.6913 40.8161 26.6339 41.0607 26.5346C41.2878 26.4426 41.496 26.3059 41.6741 26.1317C41.8472 25.9623 41.9834 25.7597 42.0836 25.5221ZM7.76611 22.1221H9.19949V26.6312H10.2229V22.1221H11.6078V21.2422H7.76611V22.1221ZM27.7578 22.8685H26.636L25.317 24.4742V22.8484H24.3404V26.6312H25.317V24.7916L26.6048 26.6307H27.7654L26.3173 24.6068L27.7578 22.8685ZM30.5008 25.2014C30.4648 25.3415 30.4127 25.4628 30.3455 25.5688C30.2808 25.6712 30.1938 25.756 30.0917 25.8162C29.9907 25.875 29.8758 25.9049 29.7454 25.9049C29.481 25.9049 29.2785 25.8022 29.1378 25.5996C28.9975 25.3965 28.9272 25.1095 28.9272 24.7379C28.9272 24.4088 28.9958 24.1353 29.1302 23.9192C29.2659 23.7026 29.4627 23.5943 29.7218 23.5943C29.9969 23.5943 30.2044 23.7017 30.345 23.9154C30.4857 24.1292 30.5551 24.4088 30.5551 24.7538C30.5551 24.913 30.5373 25.0619 30.5008 25.2014ZM31.0408 23.3082C30.8808 23.1361 30.6867 23.0029 30.4723 22.9179C30.2402 22.8257 29.9936 22.7798 29.7454 22.7826C29.4971 22.7799 29.2506 22.8258 29.0185 22.9179C28.7963 23.0085 28.6062 23.1373 28.4456 23.3044C28.2813 23.4805 28.1549 23.6914 28.0748 23.9229C27.9875 24.167 27.9434 24.4438 27.9434 24.7538C27.9434 25.0525 27.9862 25.3228 28.0712 25.5646C28.1558 25.8073 28.276 26.0127 28.4309 26.1831C28.5858 26.3525 28.7723 26.4841 28.9918 26.5775C29.2271 26.6731 29.4779 26.7202 29.7302 26.7161C29.9925 26.7161 30.2351 26.6708 30.4572 26.5808C30.6723 26.4951 30.8675 26.3623 31.0296 26.191C31.1895 26.0206 31.3145 25.8129 31.404 25.5688C31.4948 25.3247 31.5402 25.0469 31.5402 24.7379C31.5402 24.4392 31.4957 24.1684 31.408 23.9267C31.3277 23.6961 31.2026 23.4855 31.0408 23.3082Z" fill="#4376FB"/>
<path d="M33.1416 10.6717L33.3482 9.96912L32.625 9.98978C32.563 9.98978 32.1291 9.96912 31.6952 9.65917H31.7985C32.2324 9.65917 32.6663 9.39055 32.8316 9.01861L33.1416 8.33672C32.749 8.33672 32.3977 8.2954 32.3977 8.2954C32.3977 8.2954 32.1084 8.25407 31.7985 7.92346C31.5712 7.69616 31.2819 7.57218 30.972 7.57218C30.8273 7.57218 30.724 7.59285 30.6207 7.63417C30.6413 7.57218 30.662 7.53086 30.662 7.46887C30.7653 6.82831 30.3521 6.33239 30.3521 6.33239L29.8148 5.67117L29.4842 6.45637C29.4842 6.45637 29.4015 6.64234 29.2569 6.72499C29.2156 6.4977 29.0916 6.22908 28.8643 5.98112C28.4097 5.50586 27.8725 5.44387 27.5832 5.44387C27.4592 5.44387 27.3559 5.46454 27.3352 5.46454L26.674 5.58852C26.7153 5.44387 26.798 5.19591 26.9426 4.96862L27.2939 4.41071L26.3641 4.51403L26.0748 3.89413L25.5169 4.18342L25.0003 3.6875L24.5044 4.20408L23.9465 3.9148L23.6572 4.53469L22.748 4.43138L23.0993 4.98928C23.2439 5.21658 23.3266 5.46454 23.3679 5.60918L22.748 5.4852H22.7273C22.686 5.4852 22.6033 5.46454 22.4587 5.46454C22.1694 5.46454 21.6322 5.52653 21.1776 6.00178C20.9296 6.24974 20.8263 6.51836 20.785 6.74566C20.6403 6.663 20.5577 6.47703 20.5577 6.47703L20.2271 5.69183L19.6692 6.37372C19.6072 6.45637 19.2766 6.91096 19.3592 7.48953C19.3592 7.55152 19.3799 7.59285 19.4006 7.65484C19.2972 7.61351 19.1733 7.59285 19.0493 7.59285C18.7393 7.59285 18.45 7.71683 18.2227 7.94412C17.8921 8.27473 17.6235 8.31606 17.6235 8.31606C17.6235 8.31606 17.3342 8.37805 16.8796 8.35739L17.1896 9.03927C17.3549 9.41121 17.7888 9.67983 18.2227 9.67983H18.3261C17.8921 9.98978 17.4582 10.0104 17.3962 10.0104L16.6523 9.96912L16.8796 10.6717C16.983 11.0229 17.3549 11.6222 18.0781 11.6842C17.9955 12.0148 17.8301 12.366 17.4582 12.5314L16.921 12.7587L17.2103 13.2752C17.3756 13.5439 17.7682 13.8745 18.3261 13.8745C18.45 13.8745 18.574 13.8538 18.6773 13.8331C18.698 13.9571 18.7393 14.0811 18.7807 14.2051C18.946 14.701 18.8013 15.0523 18.8013 15.0523L18.5327 15.6102L19.1319 15.7755C19.1319 15.7755 19.3179 15.8375 19.5452 15.8375C19.6485 15.8375 19.7518 15.8168 19.8345 15.7961C19.8965 15.7755 19.9791 15.7548 20.0411 15.7342C20.1238 15.8788 20.2064 16.0028 20.3304 16.1061C20.723 16.4987 21.2602 16.7053 21.9421 16.7053H22.438L21.4255 17.1186L22.1901 17.4905C22.4794 17.6352 22.81 17.7798 23.1406 17.9038L23.0373 18.1724L23.3059 18.2964C23.3266 18.3171 23.8431 18.5444 24.6903 18.5857H25.3102C26.1574 18.5444 26.674 18.3171 26.6947 18.2964L26.9633 18.1724L26.86 17.9038C27.2112 17.7798 27.5625 17.6145 27.8311 17.4699L28.5957 17.0979L27.5832 16.6847H28.0791C28.761 16.6847 29.3189 16.478 29.6908 16.0854C29.7941 15.9821 29.8975 15.8375 29.9801 15.7135C30.0421 15.7342 30.1041 15.7548 30.1867 15.7755C30.2694 15.7961 30.3727 15.8168 30.476 15.8168C30.7033 15.8168 30.8893 15.7755 30.8893 15.7755L31.4885 15.6102L31.2199 15.0523C31.2199 15.0316 31.0753 14.701 31.2406 14.2051C31.2819 14.0811 31.3232 13.9571 31.3439 13.8331C31.4472 13.8538 31.5712 13.8745 31.6952 13.8745C32.4184 13.8745 32.749 13.3785 32.811 13.2546L33.1003 12.738L32.563 12.5107C32.1911 12.3454 32.0051 11.9941 31.9431 11.6635C32.6457 11.6222 33.0383 11.0229 33.1416 10.6717ZM25.0003 5.81581C24.4217 5.81581 23.9878 6.00178 23.9051 6.22908L25.0003 6.663L26.0954 6.22908C26.0128 6.00178 25.5789 5.81581 25.0003 5.81581ZM25.0209 17.3252H25.0003C24.649 17.3252 24.1738 17.2632 23.9465 17.1806L23.6572 17.9451C23.8431 18.0071 24.463 18.1311 25.0003 18.1311C25.5375 18.1311 26.1781 18.0071 26.3434 17.9451L26.0748 17.1806C25.8475 17.2632 25.3722 17.3252 25.0209 17.3252Z" fill="white"/>
<path d="M27.1285 16.5813C26.9219 16.7053 26.4673 16.8706 26.1987 16.9532L26.426 17.5731C26.8392 17.4492 27.1905 17.3252 27.4798 17.1805L26.9839 17.0359L27.1285 16.5813ZM22.8926 16.5813L23.0372 17.0359L22.562 17.2012C22.8512 17.3459 23.1819 17.4698 23.6158 17.5938L23.8431 16.9739C23.5538 16.8706 23.0992 16.7053 22.8926 16.5813ZM25.0002 5.09256C25.4341 5.09256 25.8681 5.19588 26.1987 5.38185C26.2193 5.27853 26.2607 5.15455 26.3227 5.03057L26.1987 5.05124L26.0747 5.0719L26.0127 4.94792L25.8474 4.59665L25.5375 4.76195L25.4135 4.82394L25.3308 4.72063L25.0002 4.39001L24.6903 4.72063L24.587 4.80328L24.463 4.74129L24.153 4.57598L23.9877 4.92726L23.9257 5.05124L23.8017 5.03057L23.6778 5.00991C23.7398 5.13389 23.7811 5.25787 23.8017 5.36119C24.153 5.19588 24.5663 5.09256 25.0002 5.09256ZM31.6331 9.14255C31.6951 9.16322 31.7364 9.16322 31.7984 9.16322C32.0464 9.16322 32.2737 8.99791 32.3563 8.83261C32.3563 8.83261 31.9017 8.81194 31.4265 8.31603C31.2818 8.15072 31.1165 8.10939 30.9719 8.10939C30.7446 8.10939 30.5999 8.23337 30.5999 8.23337C31.1992 8.52266 31.3025 9.01858 31.6331 9.14255ZM18.202 9.16322C18.264 9.16322 18.326 9.16322 18.3673 9.14255C18.6979 9.03924 18.8219 8.52266 19.4005 8.21271C19.4005 8.21271 19.2352 8.08873 19.0285 8.08873C18.8839 8.08873 18.7186 8.13006 18.574 8.29536C18.0987 8.79128 17.6441 8.81194 17.6441 8.81194C17.7268 8.99791 17.9541 9.16322 18.202 9.16322ZM31.7984 11.1675H31.8191C32.439 11.1675 32.6456 10.5063 32.6456 10.5063H32.6249C32.5216 10.5063 31.5918 10.4857 30.9512 9.65913C30.5173 9.12189 30.1867 8.64664 29.4841 8.46067L29.4221 8.44001L29.4015 8.37802C29.3808 8.2747 29.4635 8.17138 29.6081 8.06807C30.5586 7.44817 29.9181 6.66297 29.9181 6.66297C29.9181 6.66297 29.6494 7.30353 29.0502 7.30353H29.0089C28.9469 7.30353 28.8642 7.30353 28.8022 7.28287L28.6989 7.2622C28.6989 7.2622 28.8642 6.78695 28.451 6.35302C28.141 6.02241 27.7484 5.98108 27.5418 5.98108C27.4385 5.98108 27.3558 6.00175 27.3558 6.00175C27.5625 6.27037 27.7071 6.72496 27.4798 7.01424C27.2732 7.2622 26.7566 7.2622 26.7566 7.63414C26.7566 7.77878 26.9012 7.96475 27.1492 8.13006C27.9137 8.60531 28.6783 9.24587 28.9882 10.1137C29.3808 11.1882 28.9469 11.8908 28.3063 12.304C28.3063 12.304 28.513 12.49 28.8022 12.5107H28.9676C29.5874 12.5107 29.8974 12.2214 29.8974 12.2214C29.8974 12.2214 29.8354 12.614 29.5255 12.9859C29.2362 13.3165 28.8436 13.5232 28.265 13.5232C28.265 13.5232 28.2443 13.7918 28.513 14.0397C28.6783 14.1844 29.0709 14.2464 29.0709 14.2464C29.0709 14.2464 28.3477 14.391 28.265 15.4448C28.2237 16.0234 28.079 16.23 28.079 16.23H28.0997C29.7734 16.23 29.7321 14.8043 29.7321 14.8043C29.7321 14.8043 29.8561 15.2382 30.3107 15.3415C30.3727 15.3622 30.4346 15.3622 30.476 15.3622C30.6206 15.3622 30.7653 15.3209 30.7653 15.3209C30.7653 15.3209 30.5173 14.8043 30.7653 14.0811C30.9719 13.4818 30.9306 13.0479 30.9306 13.0479C30.9306 13.0479 31.1579 13.3785 31.7158 13.3992C32.1704 13.3992 32.377 13.0479 32.377 13.0479C31.2612 12.5933 31.3645 11.0849 31.3645 11.0849C31.3645 11.0849 31.5091 11.1675 31.7984 11.1675ZM31.4678 12.7173C31.0132 12.49 30.7239 11.9114 30.6619 11.6841C30.5793 12.8619 30.0214 13.6678 29.3395 14.453C28.9882 14.8663 28.8642 15.2589 28.8642 15.2589C28.8642 15.2589 28.9262 14.8043 29.2362 14.453C29.8561 13.7091 30.4553 12.7586 30.4966 11.6841C30.5173 10.9196 30.3313 10.3204 30.0214 9.80378C30.1867 10.3204 30.166 10.9816 29.5874 11.5808C29.5874 11.5808 30.7239 10.217 29.1329 8.79128C28.4923 8.25404 27.7897 7.92342 27.4385 7.69613C28.7403 8.13006 29.3808 7.6548 29.3808 7.6548C28.9676 8.00608 28.4303 8.00608 28.0997 7.96475C28.1824 8.00608 28.2857 8.0474 28.389 8.10939C29.4841 8.70863 30.476 9.70046 30.6413 11.0436V11.0229C30.8892 12.3867 31.4678 12.7173 31.4678 12.7173ZM20.9502 14.205C20.9502 14.205 21.3428 14.1637 21.5081 13.9984C21.7768 13.7711 21.7561 13.4818 21.7561 13.4818C21.1775 13.4818 20.7849 13.2752 20.4956 12.9446C20.1857 12.5726 20.1237 12.18 20.1237 12.18C20.1237 12.18 20.4336 12.4693 21.0535 12.4693H21.2188C21.5081 12.4487 21.7148 12.2627 21.7148 12.2627C21.0742 11.8494 20.6403 11.1469 21.0329 10.0724C21.3428 9.20454 22.1074 8.56398 22.8719 8.08873C23.1199 7.92342 23.2645 7.75812 23.2645 7.59281C23.2645 7.24154 22.7479 7.22088 22.5413 6.97292C22.2933 6.68363 22.4586 6.22904 22.6653 5.96042C22.6653 5.96042 22.6033 5.93976 22.4793 5.93976C22.252 5.93976 21.8801 6.00175 21.5701 6.31169C21.1569 6.74562 21.3222 7.22088 21.3222 7.22088L21.1982 7.28287C21.1362 7.30353 21.0742 7.30353 20.9916 7.30353H20.9502C20.351 7.30353 20.0824 6.66297 20.0824 6.66297C20.0824 6.66297 19.4418 7.44817 20.3923 8.06807C20.5576 8.17138 20.6196 8.2747 20.5989 8.37802L20.5783 8.46067L20.5163 8.48133C19.8344 8.6673 19.4831 9.14255 19.0492 9.6798C18.4086 10.5063 17.4995 10.527 17.3755 10.527C17.3755 10.527 17.5821 11.1882 18.202 11.1882H18.2227C18.512 11.1882 18.6566 11.0642 18.6566 11.0642C18.6566 11.0642 18.7599 12.552 17.6441 13.0272C17.6441 13.0272 17.8507 13.3785 18.3053 13.3785C18.8632 13.3785 19.0905 13.0272 19.0905 13.0272C19.0905 13.0272 19.0492 13.4612 19.2558 14.0604C19.5038 14.7836 19.2558 15.3002 19.2558 15.3002C19.2558 15.3002 19.3798 15.3415 19.5451 15.3415C19.6071 15.3415 19.6691 15.3415 19.7104 15.3209C20.1857 15.2175 20.289 14.7836 20.289 14.7836C20.289 14.7836 20.2477 16.2094 21.9214 16.2094H21.9421C21.9421 16.2094 21.7974 16.0027 21.7561 15.4242C21.6734 14.3703 20.9502 14.205 20.9502 14.205ZM20.6816 14.4737C20.0204 13.6885 19.4418 12.8826 19.3592 11.7048C19.2972 11.9114 19.0079 12.5107 18.5533 12.738C18.5533 12.738 19.1319 12.3867 19.3798 11.0642V11.0849C19.5451 9.72112 20.537 8.74995 21.6321 8.15072C21.7354 8.08873 21.8181 8.0474 21.9214 8.00608C21.5908 8.06807 21.0535 8.06807 20.6403 7.69613C20.6403 7.69613 21.2808 8.17138 22.5826 7.73746C22.2313 7.96475 21.5288 8.29536 20.8882 8.83261C19.2765 10.2377 20.4336 11.6221 20.4336 11.6221C19.8551 11.0229 19.8344 10.3823 19.9997 9.8451C19.6898 10.341 19.5038 10.9609 19.5245 11.7255C19.5658 12.7793 20.165 13.7091 20.7849 14.4737C21.0949 14.8456 21.1569 15.2795 21.1569 15.2795C21.1569 15.2795 21.0329 14.8869 20.6816 14.4737Z" fill="white"/>
<path d="M23.781 8.9773C23.8016 8.99796 23.8429 9.03929 23.8636 9.08062L23.8843 9.10128C23.9049 9.14261 23.9256 9.16327 23.9463 9.2046C23.9463 9.2046 23.9463 9.22526 23.9669 9.22526C23.9876 9.26658 24.0289 9.30791 24.0496 9.34924C24.2975 9.7625 24.6695 10.0105 25.0207 10.0105C25.372 10.0105 25.744 9.7625 25.9919 9.34924C26.0126 9.30791 26.0539 9.26658 26.0746 9.22526C26.0746 9.22526 26.0746 9.2046 26.0952 9.2046C26.1159 9.16327 26.1366 9.14261 26.1779 9.10128L26.1985 9.08062C26.2192 9.03929 26.2605 9.01863 26.2812 8.9773L26.3019 8.95664C26.4258 8.83266 26.5705 8.72934 26.7565 8.68801L26.6325 8.64669L26.3019 8.44006L25.9506 8.23342L25.0207 8.75L24.0909 8.23342L23.7396 8.44006L23.409 8.64669L23.3264 8.68801C23.4917 8.75 23.6363 8.83266 23.781 8.9773C23.7603 8.9773 23.7603 8.9773 23.781 8.9773ZM24.6281 8.93597H25.4133V9.2046C25.3307 9.10128 25.1447 9.12194 25.1447 9.12194V9.51454C25.1447 9.51454 25.1447 9.70051 25.2274 9.78316H24.8554C24.9174 9.70051 24.9381 9.51454 24.9381 9.51454V9.12194C24.9381 9.12194 24.7521 9.10128 24.6695 9.2046V8.93597H24.6281ZM24.9381 8.41939V6.82833L23.9256 6.47705L24.1942 8.00613L24.9381 8.41939ZM24.7108 7.22093V7.46888L24.6695 7.44822C24.6695 7.44822 24.5868 7.42756 24.4628 7.32424C24.2562 7.15894 24.2562 7.01429 24.2562 7.01429L24.7108 7.22093ZM25.8266 8.02679L26.0952 6.49771L25.0827 6.84899V8.44006L25.8266 8.02679ZM25.31 7.22093L25.7646 7.03496C25.7646 7.03496 25.7646 7.1796 25.558 7.34491C25.434 7.44822 25.372 7.46888 25.3514 7.46888L25.31 7.48955V7.22093ZM23.5123 12.0768C23.6156 12.1181 23.719 12.1181 23.781 12.1181V12.0974C23.781 12.0768 23.8016 12.0561 23.8016 12.0355C23.8223 11.9528 23.8223 11.8495 23.8223 11.7875C23.781 11.7668 23.719 11.7255 23.6983 11.6429C23.657 11.5602 23.6156 11.5189 23.533 11.5189C23.4297 11.5189 23.3264 11.5809 23.285 11.6015C23.2437 11.8495 23.3883 12.0355 23.5123 12.0768ZM25.7233 11.2503C25.5373 11.4569 25.1654 11.8082 25.1447 11.8288L25.1241 11.8495L23.9669 11.8288C23.9669 11.9528 23.9463 12.0355 23.9256 12.1181V12.1594L25.31 12.4074C25.4547 12.3041 25.8473 12.0148 25.9919 11.9115C25.8886 11.7462 25.8679 11.5602 25.8886 11.4156C25.8266 11.3536 25.7853 11.2916 25.7233 11.2503Z" fill="white"/>
<path d="M25.8886 9.84513C25.62 10.1137 25.3721 10.2171 25.1448 10.2377H24.8968C24.8555 10.2377 24.8142 10.2377 24.7728 10.2171C24.7522 10.2791 24.7315 10.403 24.7935 10.527C24.8348 10.6303 24.9381 10.713 25.0828 10.775L25.1241 10.7956V10.8576C25.1241 10.8783 25.1448 11.2089 25.496 11.3122C25.558 11.2502 25.62 11.1882 25.6407 11.1469C25.558 10.9609 25.5994 10.7956 25.7233 10.6923C25.7233 10.713 25.6613 11.1469 26.0333 11.3122L26.0953 11.3329L26.0746 11.3949C26.0746 11.4155 25.9506 11.8495 26.3846 11.9941L26.4672 12.0148L26.4259 12.0974C26.4259 12.1181 26.2606 12.5107 26.6532 12.7173H27.521V12.0354C27.2111 11.9941 27.0871 11.7461 27.0458 11.5808C26.9011 11.5602 26.7978 11.4982 26.7152 11.3949C26.5292 11.1676 26.6945 10.9403 26.6945 10.9196C26.6945 10.9196 26.6945 11.1469 26.8391 11.2916C26.9011 11.3535 26.9838 11.4155 27.1284 11.4155H27.1904V11.4775C27.1904 11.4982 27.2317 11.8081 27.521 11.8495V10.465C27.521 10.2584 27.583 10.0311 27.6657 9.82446H25.8886V9.84513ZM23.5744 10.4857L23.5537 11.3742L23.657 11.3949L23.905 10.5477L23.781 10.2791L23.5744 10.4857ZM26.3019 14.5563H26.3226C26.4672 14.5977 26.5085 15.1556 26.7772 15.1969H26.8391C26.9218 15.1969 26.9631 15.1556 27.0045 15.1142C27.0045 15.1142 26.8598 14.9076 26.7772 14.763C26.6325 14.577 26.5292 14.3497 26.2812 14.3497H26.2606C26.1779 14.3497 26.1366 14.391 26.1366 14.391C26.0333 14.329 25.9506 14.3084 25.8473 14.3084C25.682 14.3084 25.5787 14.3704 25.5167 14.3704L24.9588 14.3084C24.8761 14.3084 24.7935 14.2051 24.7728 14.1844V14.1224C24.7522 13.6678 24.4009 13.4612 24.2769 13.4612C24.2769 13.4612 24.2976 13.3785 24.2562 13.3372L24.1323 13.4819L23.719 13.2752L24.0083 13.6058L23.7603 13.8745C23.7397 13.9158 23.7397 13.9571 23.7397 13.9571L23.843 14.0604L23.967 13.9778H24.1529C24.2149 13.9778 24.2562 13.9571 24.2562 13.9158C24.2356 14.0811 24.0909 14.3704 24.1943 14.6183L24.2769 14.7836L23.781 14.7216L23.5537 15.1142C23.4917 15.2382 23.471 15.3829 23.533 15.4655L23.6157 15.5688C23.6157 15.5688 23.7397 15.4449 23.7603 15.3622L23.719 15.3209C23.6777 15.2796 23.6777 15.2589 23.6983 15.2176L23.843 14.9696L24.4216 15.1142L24.4422 15.0523C24.4835 14.9903 24.5455 14.9696 24.6075 14.9696H24.6902C24.7935 14.9903 24.9795 15.0109 25.1448 15.0109C25.3307 15.0109 25.5374 14.9696 25.6407 14.8663C25.8473 15.1762 26.2812 15.2382 26.2399 15.3829L26.1366 15.9201C26.2193 15.9201 26.2812 15.9201 26.3432 15.8994L26.4465 15.3415C26.4672 15.2796 26.4672 15.1969 26.4672 15.1969C26.4259 15.1556 26.3226 15.0729 26.2606 14.9489C26.1779 14.8043 26.2193 14.7216 26.1573 14.5357C26.2193 14.5977 26.2399 14.5563 26.3019 14.5563ZM24.1116 13.7711C24.0909 13.7711 24.0703 13.7505 24.0703 13.7091C24.0703 13.6885 24.0909 13.6678 24.1323 13.6678C24.1529 13.6678 24.1736 13.6885 24.1736 13.7298C24.1529 13.7505 24.1323 13.7711 24.1116 13.7711Z" fill="white"/>
<path d="M23.3058 15.0523C23.3058 15.0523 23.4918 14.9696 23.5125 14.9077L23.4918 14.8457C23.4711 14.8043 23.4711 14.763 23.5125 14.7424L23.7191 14.5977L24.0704 14.6597C24.0704 14.6597 24.0084 14.577 24.0084 14.4737L23.6778 14.4117L23.3678 14.5977C23.2232 14.701 23.2232 14.8663 23.2645 14.9696L23.3058 15.0523ZM25.7854 15.9615H25.992C25.992 15.9615 26.178 15.4449 26.178 15.4242C26.0747 15.3829 25.8681 15.2589 25.7854 15.2176C25.8474 15.3003 25.9714 15.3829 25.9507 15.4656L25.7854 15.9615Z" fill="white"/>
<path d="M27.4796 12.862H22.5205V14.7217C22.5205 15.4862 23.0784 15.9615 23.8842 15.9615C24.5661 15.9615 24.7521 15.9822 25.0001 16.2301C25.1654 16.0648 25.31 15.9822 25.6199 15.9615V15.9408L25.7853 15.4656C25.7853 15.4449 25.5166 15.1556 25.5166 15.1556C25.4133 15.197 25.3307 15.197 25.186 15.197C25.0414 15.197 24.8761 15.1763 24.6901 15.1556H24.6281C24.6074 15.1556 24.6074 15.1556 24.6074 15.1763L24.5868 15.2176L24.5248 15.3209L24.4215 15.3003L23.9462 15.197L23.8842 15.2796V15.3003L23.9462 15.3623L23.9256 15.4449C23.8842 15.5482 23.7809 15.6722 23.7396 15.7135L23.6156 15.8375L23.5123 15.6929L23.4296 15.5896C23.347 15.4862 23.3263 15.3416 23.3677 15.197L23.2437 15.2589L23.1817 15.135L23.1404 15.0523C23.0577 14.887 23.099 14.6597 23.285 14.5151L23.6776 14.3084L24.0495 14.3704C24.0495 14.3291 24.0702 14.2051 24.0909 14.1845H24.0702L23.8636 14.2671L23.6569 14.1225C23.6569 14.1225 23.5743 14.0398 23.6569 13.9778L23.8429 13.6885L23.347 13.0686L24.1115 13.3786L24.1529 13.3166L24.2562 13.1926L24.3802 13.2959C24.4215 13.3373 24.4421 13.3579 24.4421 13.3993C24.6488 13.4819 25.0207 13.7299 25.062 14.1225H24.9174C24.9381 14.1638 24.9587 14.1638 24.9794 14.1638L25.5166 14.2258C25.5373 14.2258 25.5373 14.2258 25.558 14.2051C25.6199 14.1845 25.7233 14.1431 25.8472 14.1431C25.9506 14.1431 26.0332 14.1638 26.1365 14.2051C26.1779 14.1845 26.2192 14.1845 26.2605 14.1845H26.2812C26.5705 14.1845 26.7151 14.4118 26.8391 14.5771C26.8597 14.5977 26.8804 14.639 26.9011 14.6597C27.0044 14.8044 27.1284 15.011 27.149 15.0316L27.211 15.135L27.1284 15.2176C27.0664 15.2796 26.9837 15.3623 26.8391 15.3623H26.7358C26.7151 15.3623 26.6738 15.3416 26.6531 15.3416C26.6531 15.3623 26.6531 15.4036 26.6324 15.4242L26.5291 15.9202C27.1077 15.7755 27.459 15.3416 27.459 14.7217L27.4796 12.862ZM22.5205 12.7174H26.3845C26.1985 12.5107 26.1985 12.2628 26.2398 12.0975C26.1779 12.0768 26.1365 12.0355 26.0952 11.9942C25.9506 12.0975 25.4753 12.4487 25.372 12.5314L25.3513 12.5521L23.8429 12.2834H23.6776C23.6569 12.3454 23.595 12.4074 23.533 12.4074H23.5123C23.471 12.4074 23.4296 12.3868 23.409 12.3454C23.3883 12.3041 23.3677 12.2834 23.3883 12.2421V12.2008C23.223 12.0975 23.0784 11.8495 23.161 11.5809V11.5602L23.1817 11.5396C23.1817 11.5396 23.2023 11.5189 23.2437 11.4982L23.1404 11.4776C23.099 11.4776 23.0784 11.4362 23.0784 11.3949C23.0784 11.3536 23.1197 11.3329 23.161 11.3329L23.4296 11.3743L23.4503 10.4444L23.8429 10.0312L24.0909 10.5477L23.8429 11.4362L24.0702 11.4776C24.1115 11.4776 24.1322 11.5189 24.1322 11.5602C24.1322 11.6016 24.0909 11.6222 24.0495 11.6222H24.0289L23.8429 11.6016V11.6222C23.8636 11.6635 23.9049 11.6842 23.9256 11.7049L25.0827 11.7255L25.372 11.4362C25.0827 11.3329 24.9794 11.085 24.9587 10.9197C24.7934 10.8577 24.6901 10.7544 24.6281 10.6097C24.5455 10.4444 24.5868 10.2791 24.6074 10.1965C24.4628 10.1345 24.2975 10.0312 24.1322 9.86584H22.3965C22.4791 10.0725 22.5411 10.2791 22.5411 10.5064V12.7174H22.5205Z" fill="#E4E9F8"/>
<path d="M24.1116 13.6678C24.091 13.6678 24.0497 13.6885 24.0497 13.7092C24.0497 13.7298 24.0703 13.7712 24.091 13.7712C24.1116 13.7712 24.153 13.7505 24.153 13.7298C24.1736 13.6885 24.153 13.6678 24.1116 13.6678ZM27.4797 17.0566L27.1905 16.9326L27.2731 16.6434L27.3558 16.3127C27.3558 16.3127 26.8599 16.5814 26.1366 16.788C25.93 16.85 25.7854 16.8706 25.7854 16.8706V17.1186C25.7854 17.1186 25.4134 17.1806 25.0208 17.1806C24.6282 17.1806 24.2563 17.1186 24.2563 17.1186V16.8913C24.2563 16.8913 24.1116 16.8706 23.905 16.8087C23.1818 16.602 22.6859 16.3334 22.6859 16.3334L22.7685 16.664L22.8512 16.9533L22.5619 17.0566L22.252 17.1806C22.6239 17.3666 23.1198 17.6145 23.5744 17.7385L23.4711 18.0278C23.4711 18.0278 24.0497 18.2964 25.0415 18.2964C26.0127 18.2964 26.6119 18.0278 26.6119 18.0278L26.5086 17.7385C26.9632 17.6145 27.4797 17.3459 27.831 17.1806L27.4797 17.0566ZM22.5619 17.1806L23.0372 17.0153L22.8925 16.5607C23.0991 16.6847 23.5537 16.85 23.8224 16.9326L23.5951 17.5525C23.1818 17.4699 22.8512 17.3252 22.5619 17.1806ZM25.0002 18.1311C24.4629 18.1311 23.8224 18.0071 23.6571 17.9451L23.9257 17.1806C24.153 17.2426 24.6282 17.3252 24.9795 17.3252H25.0002C25.3514 17.3252 25.8267 17.2632 26.054 17.1806L26.3639 17.9451C26.178 18.0071 25.5581 18.1311 25.0002 18.1311ZM26.4259 17.5732L26.1986 16.9533C26.4672 16.8706 26.9218 16.6847 27.1491 16.5814L26.9838 17.036L27.4591 17.2013C27.1698 17.3252 26.8392 17.4699 26.4259 17.5732Z" fill="black"/>
<path d="M25.0001 5.27857C25.5786 5.27857 26.0539 5.46454 26.3019 5.67117C26.3019 5.67117 26.3845 5.21658 26.6325 4.80331L26.1572 4.8653L25.9093 4.34872L25.434 4.59668L24.9794 4.14209L24.5248 4.59668L24.0909 4.34872L23.8429 4.8653L23.3677 4.80331C23.6363 5.21658 23.6983 5.67117 23.6983 5.67117C23.9669 5.46454 24.4215 5.27857 25.0001 5.27857ZM23.8223 5.05127L23.9462 5.07193L24.0082 4.94796L24.1735 4.59668L24.4835 4.76199L24.6075 4.82398L24.6901 4.72066L25.0207 4.39005L25.3307 4.72066L25.434 4.80331L25.558 4.74132L25.8679 4.57602L26.0332 4.92729L26.0952 5.05127L26.2192 5.03061L26.3432 5.00994C26.2812 5.13392 26.2399 5.2579 26.2192 5.36122C25.8886 5.17525 25.4753 5.07193 25.0207 5.07193C24.5868 5.07193 24.1529 5.17525 23.8429 5.36122C23.8223 5.2579 23.7809 5.13392 23.719 5.00994L23.8223 5.05127ZM31.8189 11.3742C32.5628 11.3742 32.8314 10.6097 32.8314 10.5683L32.9141 10.2997H32.6248C32.5215 10.2997 31.695 10.2791 31.1164 9.53519L31.0751 9.4732C30.6825 8.97728 30.3312 8.52269 29.67 8.31606C29.6906 8.2954 29.7113 8.27473 29.7526 8.25407C30.1039 8.02677 30.2899 7.75815 30.3518 7.42754C30.4345 6.95229 30.1245 6.55969 30.1039 6.53902L29.8973 6.2704L29.7733 6.58035C29.7733 6.60101 29.546 7.09693 29.0914 7.09693H28.9674C28.9881 6.86963 28.9467 6.53902 28.6368 6.22907C28.2649 5.83647 27.8103 5.79515 27.583 5.79515C27.459 5.79515 27.3763 5.81581 27.3557 5.81581L27.0457 5.8778L27.2317 6.12576C27.3763 6.33239 27.521 6.68367 27.3557 6.8903C27.2937 6.95229 27.1904 6.99361 27.0871 7.0556C26.8804 7.15892 26.5911 7.2829 26.5911 7.63417C26.5911 7.86147 26.7564 8.08876 27.0871 8.2954C28.0169 8.87397 28.5955 9.49386 28.8434 10.1757C29.236 11.2089 28.7194 11.8081 28.2442 12.1181L28.0169 12.2627L28.2029 12.4487C28.2235 12.4694 28.4715 12.676 28.8021 12.7173H28.9881C29.2154 12.7173 29.4013 12.676 29.546 12.6347C29.5047 12.7173 29.4427 12.7793 29.3807 12.862C29.0914 13.1926 28.7608 13.3372 28.2649 13.3372H28.0789L28.0582 13.5232C28.0582 13.5645 28.0376 13.8951 28.3682 14.1844C28.4095 14.2257 28.4715 14.2671 28.5335 14.2877C28.3062 14.4944 28.0996 14.825 28.0582 15.4242C28.0169 15.9201 27.9136 16.1061 27.8929 16.1061L27.6863 16.416H28.0582C28.6575 16.416 29.1327 16.2507 29.4427 15.9201C29.6286 15.7342 29.7319 15.5069 29.8146 15.3002C29.9179 15.3829 30.0626 15.4655 30.2279 15.5069C30.2899 15.5275 30.3725 15.5275 30.4552 15.5275C30.6205 15.5275 30.7651 15.4862 30.7858 15.4862L31.0131 15.4242L30.9097 15.1969C30.9097 15.1762 30.7031 14.7423 30.9097 14.1224C30.9924 13.8538 31.0544 13.6058 31.0751 13.4199C31.2197 13.5025 31.4263 13.5645 31.6743 13.5645C32.2529 13.5645 32.5008 13.1306 32.5215 13.1099L32.6455 12.9033L32.4388 12.8206C31.7569 12.5314 31.5916 11.7668 31.571 11.3536C31.633 11.3742 31.695 11.3742 31.7776 11.3742H31.8189ZM32.3768 13.0066C32.3768 13.0066 32.1702 13.3579 31.7156 13.3579C31.1577 13.3579 30.9304 13.0066 30.9304 13.0066C30.9304 13.0066 30.9717 13.4405 30.7651 14.0398C30.5171 14.763 30.7651 15.2796 30.7651 15.2796C30.7651 15.2796 30.6411 15.3209 30.4758 15.3209C30.4138 15.3209 30.3518 15.3209 30.3105 15.3002C29.8353 15.1969 29.7319 14.763 29.7319 14.763C29.7319 14.763 29.7733 16.1887 28.0996 16.1887H28.0789C28.0789 16.1887 28.2235 15.9821 28.2649 15.4035C28.3475 14.3497 29.0707 14.2051 29.0707 14.2051C29.0707 14.2051 28.6781 14.1637 28.5128 13.9984C28.2442 13.7711 28.2649 13.4819 28.2649 13.4819C28.8434 13.4819 29.236 13.2752 29.5253 12.9446C29.8353 12.5727 29.8973 12.1801 29.8973 12.1801C29.8973 12.1801 29.5873 12.4694 28.9674 12.4694H28.8021C28.5128 12.4487 28.3062 12.2627 28.3062 12.2627C28.9467 11.8495 29.3807 11.1469 28.9881 10.0724C28.6781 9.20458 27.9136 8.56402 27.149 8.08876C26.9217 7.94412 26.7771 7.75815 26.7771 7.61351C26.7771 7.26223 27.2937 7.24157 27.5003 6.99361C27.7483 6.70433 27.583 6.24974 27.3763 5.98112C27.3763 5.98112 27.4383 5.96045 27.5623 5.96045C27.7896 5.96045 28.1615 6.02244 28.4715 6.33239C28.8848 6.76632 28.7194 7.24157 28.7194 7.24157L28.8228 7.26223C28.8848 7.2829 28.9467 7.2829 29.0294 7.2829H29.0707C29.67 7.2829 29.9386 6.64234 29.9386 6.64234C29.9386 6.64234 30.5791 7.42754 29.6286 8.04744C29.4633 8.15075 29.4013 8.25407 29.422 8.35739L29.4427 8.41937L29.5047 8.44004C30.1865 8.62601 30.5378 9.10126 30.9717 9.6385C31.6123 10.465 32.5215 10.4857 32.6455 10.4857H32.6661C32.6661 10.4857 32.4595 11.1469 31.8396 11.1469H31.8189C31.5296 11.1469 31.385 11.0229 31.385 11.0229C31.385 11.0229 31.261 12.552 32.3768 13.0066ZM30.5171 8.39871C30.8064 8.54335 30.9511 8.74999 31.0957 8.93596C31.2404 9.10126 31.3643 9.26657 31.571 9.34922C31.6536 9.36988 31.7156 9.39055 31.7983 9.39055C32.1082 9.39055 32.4182 9.20458 32.5421 8.93596L32.6661 8.66733L32.3768 8.64667C32.3562 8.64667 31.9842 8.60534 31.571 8.19208C31.4057 8.02677 31.199 7.92346 30.9717 7.92346C30.7031 7.92346 30.4965 8.0681 30.4758 8.0681L30.2279 8.23341L30.5171 8.39871ZM30.9924 8.08876C31.137 8.08876 31.3024 8.13009 31.447 8.2954C31.9222 8.79131 32.3768 8.81198 32.3768 8.81198C32.2942 8.99794 32.0669 9.14259 31.8189 9.14259C31.7569 9.14259 31.695 9.14259 31.6536 9.12192C31.323 9.01861 31.199 8.50203 30.6205 8.19208C30.5998 8.21274 30.7651 8.08876 30.9924 8.08876ZM30.6411 11.0436C30.4758 9.70049 29.484 8.70866 28.3888 8.10943C28.2855 8.04744 28.2029 8.00611 28.0996 7.96478C28.4302 8.02677 28.9674 8.02677 29.3807 7.65484C29.3807 7.65484 28.7401 8.13009 27.4383 7.69616C27.7896 7.92346 28.4922 8.25407 29.1327 8.79131C30.7444 10.1964 29.5873 11.5808 29.5873 11.5808C30.1659 10.9816 30.1865 10.3411 30.0212 9.80381C30.3312 10.2997 30.5171 10.9196 30.4965 11.6842C30.4552 12.7586 29.8559 13.7092 29.236 14.453C28.9261 14.825 28.8641 15.2589 28.8641 15.2589C28.8641 15.2589 28.9881 14.8663 29.3393 14.453C30.0006 13.6678 30.5791 12.862 30.6618 11.6842C30.7238 11.8908 31.0131 12.49 31.4677 12.7173C31.4677 12.7173 30.8891 12.3867 30.6411 11.0436Z" fill="black"/>
<path d="M22.1076 16.0855C22.1076 16.0855 21.9836 15.8995 21.9629 15.4036C21.9216 14.8044 21.6943 14.4738 21.467 14.2671C21.529 14.2465 21.591 14.2051 21.6323 14.1638C21.9629 13.8745 21.9423 13.5232 21.9423 13.5026L21.9216 13.3166H21.7356C21.2397 13.3166 20.8885 13.1513 20.6198 12.8414C20.5578 12.7587 20.4959 12.6967 20.4545 12.6141C20.5992 12.6554 20.8058 12.6967 21.0124 12.6967H21.1984C21.5497 12.6761 21.777 12.4694 21.7976 12.4281L21.9836 12.2421L21.7563 12.0975C21.2604 11.7875 20.7645 11.1883 21.1571 10.1551C21.405 9.47325 21.9836 8.85336 22.9135 8.27479C23.2234 8.06815 23.4094 7.84086 23.4094 7.61356C23.4094 7.26229 23.1201 7.13831 22.9135 7.03499C22.8101 6.99367 22.7068 6.93168 22.6448 6.86969C22.4795 6.68372 22.6242 6.31178 22.7688 6.10515L22.9548 5.85719L22.6448 5.7952C22.6448 5.7952 22.5622 5.77454 22.4175 5.77454C22.1902 5.77454 21.7356 5.83653 21.3637 6.20846C21.0538 6.51841 21.0124 6.86969 21.0331 7.07632H20.9091C20.4545 7.07632 20.2272 6.5804 20.2272 6.55974L20.1033 6.24979L19.8966 6.51841C19.876 6.53908 19.566 6.91101 19.6487 7.40693C19.69 7.73754 19.8966 8.00616 20.2479 8.23346C20.2892 8.25412 20.3099 8.27479 20.3306 8.29545C19.6693 8.50208 19.3181 8.97733 18.9255 9.45259L18.8635 9.51458C18.3056 10.2998 17.479 10.3204 17.3757 10.3204H17.0864L17.1691 10.5891C17.1691 10.6304 17.4377 11.3949 18.1816 11.3949H18.2229C18.3056 11.3949 18.3675 11.3743 18.4295 11.3743C18.3882 11.7875 18.2436 12.5521 17.5617 12.8414L17.355 12.924L17.479 13.1306C17.479 13.1306 17.727 13.5646 18.3056 13.5646C18.5535 13.5646 18.7601 13.5026 18.9048 13.4199C18.9255 13.6059 18.9668 13.8539 19.0701 14.1225C19.2767 14.7424 19.0908 15.197 19.0701 15.197L18.9668 15.4243L19.1941 15.4862C19.2147 15.4862 19.3594 15.5276 19.5247 15.5276C19.6073 15.5276 19.6693 15.5276 19.752 15.5069C19.9379 15.4656 20.0619 15.3829 20.1652 15.3003C20.2272 15.4862 20.3306 15.7135 20.5372 15.9202C20.8678 16.2508 21.3224 16.4161 21.9216 16.4161H22.2936L22.1076 16.0855ZM21.9216 16.1888C20.2479 16.1888 20.2892 14.763 20.2892 14.763C20.2892 14.763 20.1652 15.197 19.7107 15.3003C19.6487 15.3209 19.5867 15.3209 19.5453 15.3209C19.4007 15.3209 19.2561 15.2796 19.2561 15.2796C19.2561 15.2796 19.504 14.763 19.2561 14.0398C19.0494 13.4406 19.0908 13.0067 19.0908 13.0067C19.0908 13.0067 18.8635 13.3373 18.3056 13.3579C17.851 13.3579 17.6443 13.0067 17.6443 13.0067C18.7601 12.5521 18.6568 11.0437 18.6568 11.0437C18.6568 11.0437 18.5122 11.147 18.2229 11.1676H18.2022C17.5823 11.1676 17.3757 10.5064 17.3757 10.5064H17.3964C17.4997 10.5064 18.4295 10.4857 19.0701 9.65922C19.504 9.12198 19.8346 8.64672 20.5372 8.46075L20.5992 8.44009L20.6198 8.3781C20.6405 8.27479 20.5578 8.17147 20.4132 8.06815C19.4627 7.44826 20.1033 6.66305 20.1033 6.66305C20.1033 6.66305 20.3719 7.30361 20.9711 7.30361H21.0124C21.0744 7.30361 21.1571 7.30361 21.2191 7.28295L21.3224 7.26229C21.3224 7.26229 21.1571 6.78703 21.5703 6.35311C21.8803 6.02249 22.2729 5.98117 22.4795 5.98117C22.5828 5.98117 22.6655 6.00183 22.6655 6.00183C22.4589 6.27045 22.3142 6.72504 22.5415 7.01433C22.7481 7.26229 23.2647 7.26229 23.2647 7.63423C23.2647 7.77887 23.1201 7.96484 22.8721 8.13014C22.1076 8.6054 21.343 9.24596 21.0331 10.1138C20.6405 11.1883 21.0744 11.8908 21.715 12.3041C21.715 12.3041 21.5084 12.4901 21.2191 12.5107H21.0538C20.4339 12.5107 20.1239 12.2215 20.1239 12.2215C20.1239 12.2215 20.1859 12.6141 20.4959 12.986C20.7851 13.3166 21.1777 13.5232 21.7563 13.5232C21.7563 13.5232 21.777 13.7919 21.5084 14.0398C21.343 14.1845 20.9504 14.2465 20.9504 14.2465C20.9504 14.2465 21.6737 14.3911 21.7563 15.4449C21.7976 16.0028 21.9423 16.1888 21.9216 16.1888ZM18.2022 9.36994C18.2849 9.36994 18.3675 9.34927 18.4295 9.32861C18.6362 9.26662 18.7808 9.10131 18.9048 8.91534C19.0494 8.72938 19.2147 8.54341 19.4834 8.3781L19.7726 8.23346L19.504 8.04749C19.4834 8.02683 19.2767 7.90285 19.0081 7.90285C18.7808 7.90285 18.5742 7.9855 18.4089 8.17147C17.9956 8.6054 17.6237 8.62606 17.603 8.62606L17.3344 8.64672L17.4584 8.91534C17.5823 9.1633 17.8923 9.36994 18.2022 9.36994ZM18.5742 8.31611C18.7188 8.15081 18.8841 8.10948 19.0288 8.10948C19.2354 8.10948 19.4007 8.23346 19.4007 8.23346C18.8221 8.54341 18.6982 9.03932 18.3675 9.1633C18.3056 9.18397 18.2642 9.18397 18.2022 9.18397C17.9543 9.18397 17.727 9.01866 17.6443 8.85336C17.6443 8.83269 18.0989 8.79137 18.5742 8.31611ZM19.5247 11.6842C19.4834 10.9197 19.69 10.3204 19.9999 9.80386C19.8346 10.3204 19.8553 10.9817 20.4339 11.5809C20.4339 11.5809 19.2974 10.2171 20.8885 8.79137C21.529 8.25412 22.2316 7.92351 22.5828 7.69622C21.2811 8.13014 20.6405 7.65489 20.6405 7.65489C21.0538 8.00616 21.591 8.00616 21.9216 7.96484C21.839 8.00616 21.7356 8.04749 21.6323 8.10948C20.5372 8.70871 19.5453 9.70055 19.38 11.0437V11.023C19.1321 12.3661 18.5535 12.6967 18.5535 12.6967C19.0081 12.4694 19.2974 11.8908 19.3594 11.6636C19.442 12.8414 19.9999 13.6472 20.6818 14.4324C21.0331 14.8457 21.1571 15.2383 21.1571 15.2383C21.1571 15.2383 21.0951 14.7837 20.7851 14.4324C20.1652 13.7092 19.566 12.7794 19.5247 11.6842Z" fill="black"/>
<path d="M24.6283 8.93593V9.20455C24.7316 9.10123 24.8969 9.1219 24.8969 9.1219V9.5145C24.8969 9.5145 24.8969 9.70047 24.8143 9.78312H25.1862C25.1242 9.70047 25.1035 9.5145 25.1035 9.5145V9.1219C25.1035 9.1219 25.2895 9.10123 25.3722 9.20455V8.93593H24.6283ZM24.463 7.34486C24.587 7.44818 24.6696 7.46884 24.6696 7.46884L24.7109 7.4895V7.24154L24.2563 7.05558C24.2563 7.03491 24.2563 7.17955 24.463 7.34486ZM25.5581 7.34486C25.7648 7.17955 25.7648 7.03491 25.7648 7.03491L25.3102 7.22088V7.46884L25.3515 7.44818C25.3515 7.44818 25.4342 7.42751 25.5581 7.34486Z" fill="black"/>
<path d="M26.3848 6.31171C26.3848 5.91911 25.7443 5.5885 25.021 5.5885C24.2978 5.5885 23.6573 5.93978 23.6573 6.31171L23.6779 6.41503L23.9672 8.06809L23.6779 8.23339L22.9134 8.64666C22.9134 8.64666 22.7481 8.72931 22.6654 8.7913C22.3762 8.99793 22.3142 9.26655 22.4795 9.39053C22.5208 9.16324 22.7068 8.91528 23.058 8.91528C23.306 8.91528 23.492 9.03926 23.6573 9.24589C23.6986 9.28722 23.7399 9.34921 23.7606 9.4112L23.8846 9.59717H21.9629C22.1075 9.88645 22.2315 10.1757 22.2315 10.5063V14.7423C22.2315 15.7755 23.0167 16.2507 23.8846 16.2507C24.5458 16.2507 24.6284 16.2301 25.0004 16.5813C25.3723 16.2094 25.455 16.2507 26.1162 16.2507C26.9634 16.2507 27.7693 15.7548 27.7693 14.7423V10.4857C27.7693 10.1551 27.8932 9.86579 28.0379 9.5765H26.1162L26.2402 9.39053C26.2815 9.32854 26.3228 9.28722 26.3435 9.22523C26.4881 9.03926 26.6948 8.89462 26.9427 8.89462C27.294 8.89462 27.48 9.14257 27.5213 9.36987C27.6866 9.24589 27.6246 8.95661 27.3353 8.77064C27.2527 8.70865 27.0874 8.62599 27.0874 8.62599L26.3642 8.21273L26.0749 8.04742L26.3642 6.39437L26.3848 6.31171ZM23.9259 6.49768L24.9384 6.84896V8.44002L24.1945 8.02676L23.9259 6.49768ZM24.1325 9.84512C24.2978 10.0104 24.4631 10.1137 24.6078 10.1757C24.5871 10.2584 24.5665 10.4237 24.6284 10.589C24.6904 10.713 24.7938 10.8163 24.9591 10.8989C24.9797 11.0643 25.083 11.3122 25.3723 11.4155L25.083 11.7048L23.9259 11.6841C23.9052 11.6635 23.8639 11.6428 23.8432 11.6015V11.5808L24.0292 11.6015H24.0499C24.0912 11.6015 24.1119 11.5808 24.1325 11.5395C24.1325 11.4982 24.1119 11.4569 24.0705 11.4569L23.8432 11.4155L24.0912 10.527L23.8432 10.0104L23.4506 10.4237L23.43 11.3535L23.1614 11.3122C23.12 11.3122 23.0787 11.3329 23.0787 11.3742C23.0787 11.4155 23.0994 11.4569 23.1407 11.4569L23.244 11.4775C23.2027 11.4982 23.182 11.5188 23.182 11.5188L23.1407 11.5395V11.5602C23.0787 11.8288 23.2233 12.0561 23.368 12.1801V12.2214C23.368 12.2627 23.368 12.304 23.3887 12.3247C23.4093 12.366 23.4506 12.3867 23.492 12.3867H23.5126C23.5746 12.3867 23.6366 12.3454 23.6573 12.2627H23.8226L25.331 12.5313L25.3517 12.5107C25.4756 12.428 25.9302 12.0974 26.0749 11.9734C26.1162 12.0148 26.1575 12.0354 26.2195 12.0768C26.1782 12.2421 26.1575 12.49 26.3642 12.6966H22.5208V10.4857C22.5208 10.2791 22.4588 10.0518 22.3762 9.84512H24.1325ZM25.9922 11.8908C25.8476 11.9941 25.455 12.2834 25.3103 12.3867L23.9259 12.1387V12.0974C23.9466 12.0354 23.9672 11.9321 23.9672 11.8081L25.1244 11.8288L25.145 11.8081C25.1657 11.7875 25.5376 11.4362 25.7236 11.2296C25.7649 11.2915 25.8269 11.3329 25.8889 11.3949C25.8889 11.5395 25.8889 11.7255 25.9922 11.8908ZM23.6986 11.6428C23.7399 11.7048 23.7813 11.7461 23.8226 11.7875C23.8226 11.8495 23.8226 11.9528 23.8019 12.0354C23.8019 12.0561 23.8019 12.0768 23.7813 12.0974V12.1181C23.7193 12.1181 23.5953 12.1181 23.5126 12.0768C23.4093 12.0354 23.244 11.8288 23.2853 11.6222C23.3267 11.6015 23.4506 11.5395 23.5333 11.5395C23.6159 11.5395 23.6573 11.5602 23.6986 11.6428ZM23.554 11.3742L23.5746 10.4857L23.7813 10.2791L23.9052 10.5477L23.6573 11.3949L23.554 11.3742ZM25.9922 15.9614H25.7856L25.9509 15.4655C25.9716 15.4035 25.8476 15.3002 25.7856 15.2176C25.8682 15.2589 26.0749 15.3829 26.1782 15.4242C26.1575 15.4449 25.9922 15.9614 25.9922 15.9614ZM26.5088 15.3829L26.4055 15.9408C26.3435 15.9408 26.2608 15.9614 26.1989 15.9614L26.3022 15.4242C26.3435 15.2589 25.9096 15.2176 25.7029 14.9076C25.5996 15.0316 25.4136 15.0523 25.207 15.0523C25.021 15.0523 24.8557 15.0316 24.7524 15.0109H24.6698C24.6078 15.0109 24.5458 15.0316 24.5045 15.0936L24.4631 15.1556L23.8846 14.9903L23.7399 15.2382C23.7193 15.2795 23.7193 15.3002 23.7606 15.3415L23.8019 15.3829C23.7813 15.4655 23.6573 15.5895 23.6573 15.5895L23.5746 15.4862C23.5126 15.4035 23.5126 15.2589 23.5953 15.1349L23.8226 14.7423L24.3185 14.8043L24.2358 14.639C24.1325 14.4117 24.2978 14.1224 24.2978 13.9364C24.2978 13.9778 24.2358 13.9984 24.1945 13.9984H24.0085L23.8846 14.0811L23.7813 13.9778C23.7606 13.9571 23.7606 13.9158 23.8019 13.8951L24.0499 13.6265L23.7606 13.2959L24.1739 13.5025L24.2978 13.3579C24.3392 13.3992 24.3185 13.4819 24.3185 13.4819C24.4425 13.4819 24.7938 13.6885 24.8144 14.1431V14.2051C24.8351 14.2464 24.9177 14.329 25.0004 14.329L25.5583 14.391C25.6203 14.391 25.7443 14.329 25.8889 14.329C25.9716 14.329 26.0749 14.3497 26.1782 14.4117C26.1782 14.4117 26.2195 14.3704 26.3022 14.3704H26.3228C26.5708 14.3704 26.6741 14.5977 26.8187 14.7836C26.9221 14.9283 27.046 15.1349 27.046 15.1349C27.0047 15.1969 26.9427 15.2176 26.8807 15.2176H26.8187C26.5501 15.1762 26.5088 14.6183 26.3642 14.577H26.3435C26.3022 14.577 26.2815 14.6183 26.2815 14.6183C26.3435 14.8043 26.3022 14.8869 26.3848 15.0316C26.4468 15.1349 26.5501 15.2176 26.5915 15.2795C26.5295 15.2382 26.5088 15.3209 26.5088 15.3829ZM23.492 14.8663L23.5126 14.9283C23.492 14.9903 23.306 15.0729 23.306 15.0729L23.2647 14.9696C23.2233 14.8663 23.2233 14.701 23.368 14.5977L23.6779 14.4117L24.0085 14.4737C24.0085 14.577 24.0705 14.6597 24.0705 14.6597L23.7193 14.5977L23.5126 14.7423C23.492 14.763 23.492 14.825 23.492 14.8663ZM26.5501 15.9201L26.6534 15.4242C26.6534 15.4035 26.6741 15.3622 26.6741 15.3415C26.6948 15.3622 26.7361 15.3622 26.7568 15.3622H26.8601C27.0047 15.3622 27.0874 15.2795 27.1494 15.2176L27.232 15.1349L27.17 15.0316C27.17 15.0316 27.0254 14.8043 26.9221 14.6597C26.9014 14.639 26.8807 14.5977 26.8601 14.577C26.7361 14.4117 26.5915 14.1844 26.3022 14.1844H26.2815C26.2402 14.1844 26.1988 14.2051 26.1575 14.2051C26.0749 14.1637 25.9716 14.1431 25.8682 14.1431C25.7443 14.1431 25.6409 14.1844 25.579 14.2051C25.5583 14.2257 25.5376 14.2257 25.517 14.2257L24.9797 14.1637C24.9797 14.1637 24.9591 14.1431 24.9177 14.1224L25.0417 14.0811C25.0004 13.6885 24.6284 13.4405 24.4218 13.3579C24.4218 13.3165 24.4011 13.2752 24.3598 13.2546L24.2358 13.1512L24.1325 13.2752L24.0912 13.3165L23.3267 13.0066L23.8226 13.6265L23.6366 13.9158C23.5746 13.9984 23.6366 14.0604 23.6366 14.0604L23.8432 14.2051L24.0499 14.1224H24.0705C24.0705 14.1637 24.0499 14.2877 24.0292 14.3084L23.6779 14.2671L23.2853 14.4737C23.0787 14.6183 23.058 14.8663 23.1407 15.0109L23.182 15.0936L23.244 15.2176L23.368 15.1556C23.3267 15.3002 23.3473 15.4655 23.43 15.5482L23.5126 15.6515L23.6159 15.7961L23.7399 15.6722C23.7813 15.6308 23.8846 15.5068 23.9259 15.4035L23.9466 15.3209L23.8846 15.2589V15.2382L23.9466 15.1349L24.4218 15.2382L24.5251 15.2589L24.5871 15.1556L24.6078 15.1142C24.6078 15.0936 24.6078 15.0936 24.6284 15.0936H24.6904C24.8764 15.1349 25.0417 15.1349 25.1864 15.1349C25.331 15.1349 25.4136 15.1349 25.517 15.0936C25.517 15.0936 25.7649 15.3829 25.7856 15.4035L25.6203 15.8788V15.8994C25.331 15.9201 25.1864 15.9821 25.0004 16.1681C24.7524 15.9201 24.5665 15.8994 23.8846 15.8994C23.0787 15.8994 22.5208 15.4242 22.5208 14.6597V12.8H27.48V14.6597C27.48 15.3415 27.1287 15.7755 26.5501 15.9201ZM27.6246 9.84512C27.542 10.0518 27.48 10.2584 27.48 10.4857V11.8701C27.1907 11.8288 27.1494 11.4982 27.1494 11.4982V11.4362H27.0874C26.9634 11.4155 26.8807 11.3742 26.7981 11.3122C26.6534 11.1676 26.6534 10.9403 26.6534 10.9403C26.6534 10.9609 26.4881 11.1676 26.6741 11.4155C26.7568 11.5188 26.8601 11.5808 27.0047 11.6015C27.046 11.7668 27.17 12.0148 27.48 12.0561V12.738H26.6121C26.2195 12.5107 26.3848 12.1387 26.3848 12.1181L26.4261 12.0354L26.3642 11.9734C25.9302 11.8081 26.0542 11.3949 26.0542 11.3742L26.0749 11.3122L26.0129 11.2915C25.6616 11.1262 25.7029 10.6923 25.7029 10.6717C25.5996 10.7543 25.5583 10.9403 25.6203 11.1262C25.579 11.1676 25.517 11.2296 25.4756 11.2915C25.1244 11.1882 25.1244 10.837 25.1244 10.837V10.775L25.083 10.7543C24.9384 10.6923 24.8351 10.6303 24.7938 10.5063C24.7318 10.3824 24.7524 10.2584 24.7731 10.1964C24.8144 10.1964 24.8557 10.2171 24.8971 10.2171H25.145C25.3723 10.1964 25.6203 10.0931 25.8889 9.82446H27.6246V9.84512ZM26.2815 8.44002L26.6121 8.64666L26.6948 8.68798C26.5088 8.74997 26.3642 8.83263 26.2402 8.95661L26.2195 8.97727C26.1988 8.99793 26.1575 9.03926 26.1369 9.08059C26.1369 9.08059 26.1369 9.10125 26.1162 9.10125C26.0955 9.14257 26.0749 9.16324 26.0335 9.20456C26.0335 9.20456 26.0335 9.22523 26.0129 9.22523C25.9922 9.26655 25.9509 9.30788 25.9302 9.34921C25.6823 9.76247 25.3103 10.0104 24.9591 10.0104C24.6078 10.0104 24.2358 9.76247 23.9879 9.34921C23.9672 9.30788 23.9259 9.26655 23.9052 9.22523L23.8846 9.20456C23.8639 9.16324 23.8432 9.14257 23.8226 9.10125L23.8019 9.08059C23.7813 9.03926 23.7399 9.0186 23.7193 8.97727L23.6986 8.95661C23.5746 8.83263 23.43 8.72931 23.244 8.68798L23.3267 8.64666L23.6573 8.44002L24.0085 8.23339L24.9384 8.74997L25.8682 8.23339L26.2815 8.44002ZM25.8269 8.02676L25.083 8.41936V6.82829L26.0955 6.47702L25.8269 8.02676ZM25.0004 6.66299L23.9052 6.22906C24.0085 6.00177 24.4218 5.8158 25.0004 5.8158C25.579 5.8158 26.0129 6.00177 26.0955 6.22906L25.0004 6.66299Z" fill="black"/>
</svg>
