<svg width="50" height="32" viewBox="0 0 50 32" fill="none" xmlns="http://www.w3.org/2000/svg">
<rect width="50" height="32" rx="3" fill="#E4E9F8"/>
<path d="M25.0576 5C26.1304 5 27.151 5.24407 28.0668 5.68066C28.2105 5.74502 28.3551 5.82204 28.4982 5.89912L27.8702 6.45155L26.9288 5.48821L25.3065 6.90094L24.3513 5.88612L21.3682 8.51927L23.2781 10.5872L22.5325 11.2292L24.4167 13.2972L23.6711 13.939L26.3664 16.8803L27.9616 15.4417L29.3491 16.9834C29.0741 17.1889 28.7732 17.3949 28.4465 17.5744C27.452 18.1266 26.3005 18.4471 25.0708 18.4471C21.2895 18.4471 18.2154 15.4294 18.2154 11.7178C18.202 8.03127 21.2766 5 25.0576 5ZM23.8014 11.3065L25.4369 9.86786L26.9025 11.4733L25.2667 12.9118L23.8014 11.3065ZM24.9662 14.0809L26.5883 12.6295L28.0668 14.2348L26.4313 15.6735L24.9662 14.0809ZM22.6377 8.57082L24.2727 7.13221L25.738 8.73767L24.1025 10.1762L22.6377 8.57082ZM25.6332 7.79993L26.85 6.72109L27.9493 7.91564L26.7324 9.00722L25.6332 7.79993ZM27.8052 12.7449L29.0217 11.666L30.1208 12.873L28.9039 13.9526L27.8052 12.7449ZM28.8779 15.1726L30.0948 14.0935L31.1931 15.288L29.9767 16.3795L28.8779 15.1726ZM29.3751 9.62379L30.1862 8.90445L30.9186 9.70108L30.1077 10.4201L29.3751 9.62379ZM28.3285 7.24764L29.1396 6.51569L29.8725 7.32473L29.0608 8.044L28.3285 7.24764ZM30.4086 12.0001L31.2196 11.2809L31.9653 12.0772L31.1414 12.7963L30.4086 12.0001ZM26.7585 10.2148L27.9754 9.13585L29.0741 10.3301L27.8577 11.4092L26.7585 10.2148Z" fill="#4376FB"/>
<path d="M14.3786 23.2319H14.3406L13.6265 25.9446H13.0427L12.1665 22.0907H12.7721L13.3779 24.9663H13.4158L14.1187 22.0907H14.6003L15.3521 24.9663H15.3899L15.9417 22.0907H16.5745L15.698 25.9446H15.1139L14.3786 23.2319Z" fill="#4376FB"/>
<path d="M17.3428 24.3039H18.5811C18.5542 23.7334 18.2783 23.5053 17.9863 23.5053C17.6564 23.5053 17.4021 23.7607 17.3428 24.3039ZM19.0137 25.3261V25.7393C18.7704 25.8806 18.4461 25.9894 18.0564 25.9894C17.1481 25.9894 16.7749 25.4241 16.7749 24.5654C16.7749 23.7388 17.1913 23.1409 18.0025 23.1409C18.6784 23.1409 19.0951 23.5815 19.0951 24.4672V24.6684H17.332C17.332 25.3205 17.5968 25.6086 18.1541 25.6086C18.4461 25.6086 18.7165 25.5052 19.0137 25.3261Z" fill="#4376FB"/>
<path d="M20.3529 25.5536C20.526 25.6296 20.7155 25.6409 20.8509 25.6409C21.251 25.6409 21.5536 25.3905 21.5536 24.5102C21.5536 23.8198 21.3048 23.597 20.9426 23.597C20.7261 23.597 20.5693 23.6569 20.3529 23.7763V25.5536H20.3529ZM20.3586 23.3742C20.5205 23.2875 20.7963 23.1729 21.0884 23.1729C21.7591 23.1729 22.1216 23.6404 22.1216 24.5102C22.1216 25.5267 21.6347 26.0213 20.8509 26.0213C20.564 26.0213 20.1206 25.9289 19.7959 25.7546V21.9609L20.3586 21.8252V23.3742H20.3586Z" fill="#4376FB"/>
<path d="M24.5559 25.1268H24.5829L25.7401 22.0883H26.4111V25.9424H25.827V23.1483H25.7783L24.6748 25.9424H24.329L23.2252 23.2136H23.1767V25.9424H22.6899V22.0883H23.3446L24.5559 25.1268Z" fill="#4376FB"/>
<path d="M28.7975 24.5652C28.7975 23.8314 28.5002 23.5218 28.1324 23.5218C27.7756 23.5218 27.4671 23.8314 27.4671 24.5652C27.4671 25.31 27.7487 25.6086 28.1324 25.6086C28.5162 25.6086 28.7975 25.31 28.7975 24.5652ZM26.8994 24.5652C26.8994 23.6136 27.4188 23.1409 28.1324 23.1409C28.8466 23.1409 29.3656 23.6136 29.3656 24.5652C29.3656 25.4945 28.8735 25.9894 28.1324 25.9894C27.3915 25.9894 26.8994 25.4945 26.8994 24.5652Z" fill="#4376FB"/>
<path d="M29.7935 23.5434C30.0368 23.3964 30.5508 23.1409 31.1726 23.1409C31.8216 23.1409 32.0645 23.3964 32.0645 23.9561V25.9241H31.5025V24.0813C31.5025 23.652 31.2919 23.5759 31.0157 23.5759C30.7996 23.5759 30.5235 23.6739 30.356 23.7717V25.9241H29.7935V23.5434H29.7935Z" fill="#4376FB"/>
<path d="M33.2552 24.3039H34.4936C34.467 23.7334 34.1909 23.5053 33.8988 23.5053C33.5688 23.5053 33.315 23.7607 33.2552 24.3039ZM34.9262 25.3261V25.7393C34.683 25.8806 34.3585 25.9894 33.969 25.9894C33.0609 25.9894 32.6875 25.4241 32.6875 24.5654C32.6875 23.7388 33.1037 23.1409 33.915 23.1409C34.5913 23.1409 35.008 23.5815 35.008 24.4672V24.6684H33.2446C33.2446 25.3205 33.5096 25.6086 34.0667 25.6086C34.3585 25.6086 34.6293 25.5052 34.9262 25.3261Z" fill="#4376FB"/>
<path d="M37.2543 23.1409H37.8331L36.8541 25.8583C36.5833 26.6085 36.2538 26.9999 35.632 26.9999V26.5545C35.9999 26.5545 36.2267 26.2608 36.3568 25.8583L35.3184 23.1409H35.9134L36.6056 25.1411H36.6381L37.2543 23.1409Z" fill="#4376FB"/>
</svg>
